<svg width="20" height="21" viewBox="0 0 20 21" fill="none" xmlns="http://www.w3.org/2000/svg">
<path d="M17.91 14.01H13.38C13.1148 14.01 12.8604 14.1154 12.6729 14.3029C12.4854 14.4904 12.38 14.7448 12.38 15.01C12.38 15.2752 12.4854 15.5296 12.6729 15.7171C12.8604 15.9046 13.1148 16.01 13.38 16.01H15.78C14.6769 17.1627 13.2544 17.9593 11.6952 18.2974C10.1359 18.6355 8.51121 18.4996 7.02978 17.9072C5.54834 17.3149 4.27787 16.2931 3.38159 14.9732C2.48531 13.6532 2.00418 12.0955 2 10.5C2 10.2348 1.89464 9.98043 1.70711 9.79289C1.51957 9.60536 1.26522 9.5 1 9.5C0.734784 9.5 0.48043 9.60536 0.292893 9.79289C0.105357 9.98043 0 10.2348 0 10.5C0.00528666 12.4528 0.582221 14.3613 1.6596 15.99C2.73699 17.6187 4.26767 18.8964 6.06274 19.6652C7.85782 20.4341 9.83873 20.6605 11.761 20.3166C13.6833 19.9727 15.4628 19.0735 16.88 17.73V19.5C16.88 19.7652 16.9854 20.0196 17.1729 20.2071C17.3604 20.3946 17.6148 20.5 17.88 20.5C18.1452 20.5 18.3996 20.3946 18.5871 20.2071C18.7746 20.0196 18.88 19.7652 18.88 19.5V15C18.8775 14.7416 18.7752 14.4943 18.5943 14.3097C18.4135 14.1251 18.1683 14.0177 17.91 14.01ZM10 0.5C7.43639 0.507312 4.97349 1.49891 3.12 3.27V1.5C3.12 1.23478 3.01464 0.98043 2.82711 0.792893C2.63957 0.605357 2.38522 0.5 2.12 0.5C1.85478 0.5 1.60043 0.605357 1.41289 0.792893C1.22536 0.98043 1.12 1.23478 1.12 1.5V6C1.12 6.26522 1.22536 6.51957 1.41289 6.70711C1.60043 6.89464 1.85478 7 2.12 7H6.62C6.88522 7 7.13957 6.89464 7.32711 6.70711C7.51464 6.51957 7.62 6.26522 7.62 6C7.62 5.73478 7.51464 5.48043 7.32711 5.29289C7.13957 5.10536 6.88522 5 6.62 5H4.22C5.32247 3.84787 6.74409 3.0515 8.3024 2.71311C9.86071 2.37472 11.4846 2.50975 12.9656 3.10086C14.4466 3.69198 15.7172 4.71221 16.6142 6.0306C17.5113 7.349 17.9938 8.90539 18 10.5C18 10.7652 18.1054 11.0196 18.2929 11.2071C18.4804 11.3946 18.7348 11.5 19 11.5C19.2652 11.5 19.5196 11.3946 19.7071 11.2071C19.8946 11.0196 20 10.7652 20 10.5C20 9.18678 19.7413 7.88642 19.2388 6.67317C18.7362 5.45991 17.9997 4.35752 17.0711 3.42893C16.1425 2.50035 15.0401 1.76375 13.8268 1.2612C12.6136 0.758658 11.3132 0.5 10 0.5Z" fill="#7C91C8"/>
</svg>
