<svg width="17" height="15" viewBox="0 0 17 15" fill="none" xmlns="http://www.w3.org/2000/svg">
<path d="M8.50097 1C4.35893 1 1.00194 3.70156 1.00194 7.03571C1.00194 8.41696 1.58488 9.68214 2.55155 10.7007C2.11508 11.844 1.207 12.8132 1.19235 12.8248C0.999015 13.0279 0.946287 13.3239 1.0576 13.5792C1.16891 13.8346 1.42376 14 1.70498 14C3.5065 14 4.92722 13.2542 5.77965 12.6565C6.62622 12.9205 7.54016 13.0714 8.50097 13.0714C12.643 13.0714 16 10.3699 16 7.03571C16 3.70156 12.643 1 8.50097 1ZM8.50097 11.6786C7.71885 11.6786 6.94551 11.5596 6.2044 11.3275L5.53944 11.1185L4.96823 11.519C4.54934 11.8121 3.97519 12.14 3.28387 12.3605C3.49771 12.0094 3.7057 11.6147 3.86681 11.194L4.17731 10.3786L3.57388 9.74598C3.04367 9.18594 2.40801 8.26027 2.40801 7.03571C2.40801 4.47634 5.14106 2.39286 8.50097 2.39286C11.8609 2.39286 14.5939 4.47634 14.5939 7.03571C14.5939 9.59509 11.8609 11.6786 8.50097 11.6786Z" fill="white" stroke="#FEA443" stroke-width="0.2"/>
</svg>
