<svg width="73" height="64" viewBox="0 0 73 64" fill="none" xmlns="http://www.w3.org/2000/svg">
<path d="M63.5836 19.9344H59.3742V17.6642C59.3742 16.7929 59.0427 15.9572 58.4527 15.3411C57.8627 14.7249 57.0625 14.3788 56.2281 14.3788C55.3937 14.3788 54.5935 14.7249 54.0034 15.3411C53.4134 15.9572 53.082 16.7929 53.082 17.6642V19.9344H48.8726V17.6642C48.8726 15.6269 49.6476 13.673 51.0271 12.2324C52.4067 10.7917 54.2777 9.98242 56.2287 9.98242C58.1797 9.98242 60.0507 10.7917 61.4303 12.2324C62.8098 13.673 63.5848 15.6269 63.5848 17.6642L63.5836 19.9344Z" fill="#3A3A3A"/>
<path d="M65.3112 19.9323H47.1447C46.9578 19.9297 46.7723 19.9662 46.5992 20.0397C46.4261 20.1132 46.2688 20.2222 46.1367 20.3602C46.0046 20.4982 45.9002 20.6624 45.8298 20.8432C45.7595 21.0239 45.7245 21.2176 45.7269 21.4127V35.4329C45.7245 35.628 45.7595 35.8217 45.8298 36.0024C45.9002 36.1832 46.0046 36.3474 46.1367 36.4854C46.2688 36.6234 46.4261 36.7324 46.5992 36.8059C46.7723 36.8794 46.9578 36.9159 47.1447 36.9134H65.3112C65.4981 36.9159 65.6835 36.8794 65.8566 36.8059C66.0298 36.7324 66.187 36.6234 66.3192 36.4854C66.4513 36.3474 66.5556 36.1832 66.626 36.0024C66.6964 35.8217 66.7314 35.628 66.7289 35.4329V21.4127C66.7185 21.0235 66.5658 20.6533 66.3022 20.3779C66.0385 20.1026 65.6839 19.9431 65.3112 19.9323ZM57.1137 29.1402V31.0371C57.1137 31.2949 57.0156 31.5421 56.8411 31.7244C56.6665 31.9067 56.4298 32.0091 56.1829 32.0091C55.9361 32.0091 55.6994 31.9067 55.5248 31.7244C55.3502 31.5421 55.2522 31.2949 55.2522 31.0371V29.1402C54.9626 28.9704 54.7229 28.7212 54.559 28.4196C54.3951 28.118 54.3132 27.7753 54.322 27.4286C54.3344 26.9218 54.5359 26.4402 54.8836 26.0863C55.2312 25.7324 55.6975 25.5344 56.1829 25.5344C56.6684 25.5344 57.1347 25.7324 57.4823 26.0863C57.83 26.4402 58.0315 26.9218 58.0439 27.4286C58.0618 27.7769 57.9838 28.1233 57.8189 28.4267C57.654 28.7301 57.4093 28.9777 57.1137 29.1402Z" fill="#3A3A3A"/>
<path d="M45.2845 17.8495H40.8975C40.5567 17.8495 40.2298 17.7081 39.9887 17.4564C39.7477 17.2047 39.6123 16.8633 39.6123 16.5074C39.6123 16.1514 39.7477 15.8101 39.9887 15.5584C40.2298 15.3067 40.5567 15.1653 40.8975 15.1653H45.2845C45.6254 15.1653 45.9522 15.3067 46.1933 15.5584C46.4343 15.8101 46.5697 16.1514 46.5697 16.5074C46.5697 16.8633 46.4343 17.2047 46.1933 17.4564C45.9522 17.7081 45.6254 17.8495 45.2845 17.8495Z" fill="#3A3A3A"/>
<path d="M48.3862 10.6317C48.0901 10.6363 47.8039 10.5202 47.5886 10.3079L44.133 7.34692C43.881 7.11601 43.7249 6.7918 43.6976 6.44284C43.6704 6.09389 43.7742 5.74755 43.9871 5.47707C44.2 5.2066 44.5053 5.0332 44.8384 4.99354C45.1715 4.95389 45.5063 5.05109 45.7721 5.26458L49.2276 8.22556C49.4867 8.45619 49.65 8.78279 49.6831 9.13661C49.7162 9.49043 49.6166 9.84387 49.4051 10.1225C49.2757 10.2732 49.1191 10.3957 48.9443 10.4831C48.7694 10.5705 48.5798 10.6209 48.3862 10.6317Z" fill="#3A3A3A"/>
<path d="M56.2249 7.48511C55.8841 7.48477 55.5574 7.34327 55.3165 7.09165C55.0755 6.84003 54.94 6.49886 54.9397 6.14302V1.51616C54.9397 1.16022 55.0751 0.818853 55.3161 0.567162C55.5571 0.315471 55.884 0.174072 56.2249 0.174072C56.5657 0.174072 56.8926 0.315471 57.1336 0.567162C57.3746 0.818853 57.51 1.16022 57.51 1.51616V6.14302C57.5097 6.49886 57.3742 6.84003 57.1332 7.09165C56.8923 7.34327 56.5656 7.48477 56.2249 7.48511Z" fill="#3A3A3A"/>
<path d="M64.0263 10.6318C63.8378 10.63 63.6522 10.5834 63.4836 10.4953C63.3151 10.4073 63.168 10.2803 63.0536 10.1239C62.843 9.84486 62.7439 9.49166 62.777 9.13812C62.8101 8.78458 62.9728 8.45809 63.2311 8.22693L66.6867 5.26598C66.8168 5.14678 66.9685 5.05611 67.1328 4.99936C67.2971 4.94261 67.4707 4.92093 67.6432 4.93561C67.8157 4.95029 67.9836 5.00103 68.137 5.08482C68.2903 5.16861 68.426 5.28374 68.5359 5.42336C68.6458 5.56298 68.7277 5.72424 68.7767 5.89757C68.8257 6.07089 68.8409 6.25274 68.8213 6.43231C68.8017 6.61188 68.7477 6.7855 68.6626 6.94285C68.5774 7.10021 68.4629 7.23809 68.3257 7.34829L64.8701 10.3092C64.6372 10.5229 64.3362 10.6379 64.0263 10.6318Z" fill="#3A3A3A"/>
<path d="M71.515 17.8495H67.0843C66.9155 17.8495 66.7484 17.8148 66.5924 17.7473C66.4365 17.6799 66.2948 17.581 66.1755 17.4564C66.0562 17.3318 65.9615 17.1838 65.8969 17.021C65.8323 16.8582 65.7991 16.6836 65.7991 16.5074C65.7991 16.3311 65.8323 16.1566 65.8969 15.9938C65.9615 15.831 66.0562 15.683 66.1755 15.5584C66.2948 15.4338 66.4365 15.3349 66.5924 15.2674C66.7484 15.2 66.9155 15.1653 67.0843 15.1653H71.515C71.8558 15.1653 72.1827 15.3067 72.4237 15.5584C72.6648 15.8101 72.8002 16.1514 72.8002 16.5074C72.8002 16.8633 72.6648 17.2047 72.4237 17.4564C72.1827 17.7081 71.8558 17.8495 71.515 17.8495Z" fill="#3A3A3A"/>
<path d="M0 40.5445V25.5987H3.45555V37.3981H8.99512V40.5445H0ZM20.4269 35.4085V36.2414H13.1158C13.1573 36.5187 13.2476 36.7856 13.382 37.0286C13.5106 37.2707 13.6928 37.4771 13.9134 37.6305C14.1396 37.814 14.3947 37.955 14.6672 38.047C14.9392 38.1379 15.223 38.1846 15.5086 38.1854C15.9359 38.1976 16.3598 38.1032 16.7451 37.91C17.1304 37.7167 17.466 37.4303 17.724 37.0744L20.0281 38.598C19.55 39.3065 18.9102 39.8791 18.1666 40.2639C17.3184 40.668 16.3959 40.8734 15.4636 40.8657C14.7402 40.8631 14.022 40.7379 13.3371 40.495C12.6864 40.2615 12.084 39.9013 11.5619 39.4335C11.0246 38.9078 10.6006 38.2688 10.318 37.5589C10.0354 36.8489 9.9007 36.0843 9.92285 35.3158C9.90214 34.5197 10.0534 33.729 10.3654 33.0024C10.6172 32.3329 11.0108 31.7317 11.5169 31.2438C12.0127 30.7523 12.6011 30.3739 13.2446 30.1328C13.9214 29.8528 14.6433 29.7114 15.3712 29.7164C16.066 29.7149 16.7557 29.8404 17.4091 30.0871C18.0041 30.3472 18.5457 30.7244 19.0043 31.1981C19.4611 31.7184 19.8083 32.3331 20.0232 33.0024C20.297 33.772 20.4339 34.5875 20.4269 35.4085ZM17.3701 34.1134C17.3717 33.5908 17.1998 33.0838 16.8838 32.6786C16.6937 32.4644 16.4589 32.2987 16.1977 32.1943C15.9365 32.09 15.6558 32.0497 15.3773 32.0768C15.0767 32.0739 14.7776 32.1206 14.4909 32.2152C14.2323 32.3078 13.9921 32.4489 13.7821 32.6316C13.5832 32.8144 13.4183 33.0339 13.2957 33.2792C13.1757 33.525 13.1007 33.7919 13.0744 34.0664H17.3726L17.3701 34.1134ZM25.7452 32.6329V36.6579C25.7141 37.0488 25.8078 37.4394 26.0114 37.7689C26.1357 37.9041 26.288 38.0079 26.4566 38.0721C26.6252 38.1364 26.8057 38.1595 26.9842 38.1396C27.1624 38.1474 27.3409 38.1321 27.5155 38.0939C27.6665 38.0608 27.8145 38.0145 27.9581 37.9555L28.0019 40.495C27.7106 40.5885 27.4147 40.6656 27.1155 40.7261C26.763 40.7799 26.4077 40.8109 26.0516 40.8187C25.4786 40.8358 24.9076 40.7415 24.3676 40.5407C23.9475 40.3888 23.5679 40.1351 23.2599 39.8004C22.9734 39.457 22.7751 39.0433 22.6836 38.598C22.5757 38.0976 22.5162 37.5872 22.506 37.0744V32.6304H20.8695V30.0414H22.4647V27.2709H25.7476V30.0478H28.0979V32.6392L25.7452 32.6329ZM31.151 25.3219C30.9268 25.312 30.703 25.3485 30.4924 25.4293C30.2818 25.5101 30.0885 25.6336 29.9238 25.7927C29.759 25.9518 29.626 26.1433 29.5324 26.3562C29.4388 26.5691 29.3864 26.7993 29.3782 27.0335C29.3674 27.259 29.4027 27.4844 29.4818 27.6947C29.5609 27.9049 29.6819 28.0951 29.8368 28.2527C29.9918 28.4103 30.177 28.5316 30.3804 28.6086C30.5837 28.6856 30.8004 28.7166 31.016 28.6993C31.0926 28.7115 31.1709 28.6954 31.2373 28.6536C31.1403 29.0115 30.9466 29.3328 30.6795 29.5788C30.4124 29.8249 30.083 29.9855 29.7308 30.0414H29.5983V31.6603H29.7758C30.5697 31.5651 31.3143 31.2095 31.9024 30.6445C32.291 30.2308 32.5938 29.7379 32.7919 29.1966C32.99 28.6553 33.0792 28.0771 33.0539 27.4982C33.0738 27.2228 33.0396 26.9461 32.9533 26.6851C32.867 26.4241 32.7305 26.1843 32.5521 25.9804C32.3737 25.7766 32.1573 25.613 31.9161 25.4997C31.675 25.3865 31.4142 25.326 31.1498 25.3219H31.151ZM38.8111 33.1421C38.539 32.8596 38.2249 32.625 37.8809 32.4475C37.5228 32.2632 37.1287 32.1681 36.7295 32.1695C36.4388 32.1593 36.1501 32.2229 35.8881 32.3548C35.7647 32.405 35.6596 32.4947 35.588 32.611C35.5163 32.7273 35.4818 32.8643 35.4893 33.0024C35.4879 33.1453 35.5301 33.2851 35.6096 33.4014C35.6891 33.5178 35.802 33.6048 35.9319 33.6499C36.3898 33.8381 36.8648 33.9777 37.3496 34.0664C37.7448 34.1474 38.1308 34.2717 38.501 34.4372C38.86 34.5998 39.2015 34.8016 39.5199 35.039C39.839 35.2796 40.0976 35.5972 40.2738 35.9646C40.4599 36.3681 40.5511 36.8121 40.5401 37.2597C40.5562 37.8427 40.4182 38.4191 40.1413 38.9256C39.8977 39.3804 39.547 39.7628 39.1224 40.0366C38.6976 40.3116 38.2339 40.5147 37.7484 40.6384C37.2412 40.7685 36.7203 40.8307 36.1981 40.8238C35.3836 40.8286 34.5743 40.6878 33.8053 40.4074C33.0767 40.168 32.4109 39.7561 31.8599 39.2037L33.7214 37.1721C34.0444 37.5113 34.4186 37.7927 34.8291 38.0051C35.2555 38.2266 35.7268 38.3376 36.203 38.3288C36.4792 38.3341 36.7526 38.2706 37.0006 38.1435C37.1264 38.0831 37.2317 37.9845 37.3029 37.8606C37.374 37.7367 37.4077 37.5932 37.3994 37.4489C37.3935 37.2902 37.3447 37.1364 37.2586 37.0055C37.1726 36.8745 37.0528 36.7716 36.9131 36.7087C36.4266 36.5036 35.922 36.3488 35.4066 36.2465C35.0463 36.16 34.6911 36.0519 34.3427 35.9227C34.0049 35.7939 33.6904 35.6063 33.4125 35.3679C33.1437 35.1175 32.9187 34.8202 32.7475 34.4892C32.5637 34.1005 32.4704 33.672 32.4751 33.2386C32.4591 32.6704 32.5974 32.1092 32.8739 31.6197C33.1149 31.1912 33.4479 30.8269 33.8466 30.5556C34.2456 30.2624 34.6979 30.0576 35.1756 29.9538C35.6518 29.8242 36.1425 29.7618 36.6346 29.7684C37.3867 29.7749 38.1336 29.8999 38.85 30.1392C39.5328 30.3502 40.1563 30.7315 40.6665 31.2502L38.8111 33.1421ZM0 57.8494V42.9049H9.61644V45.9585H3.32302V48.7811H9.26019V51.6494H3.32302V54.75H9.96905V57.8507L0 57.8494ZM18.6991 57.8494V52.1128C18.6915 51.8331 18.6618 51.5545 18.6104 51.2799C18.5705 51.0381 18.4959 50.8039 18.3891 50.5854C18.2891 50.3886 18.1349 50.2276 17.9465 50.1232C17.7199 49.9808 17.4563 49.916 17.1926 49.9378C16.9155 49.9223 16.6396 49.9864 16.395 50.1232C16.1736 50.2526 15.978 50.4249 15.8187 50.6311C15.6741 50.8631 15.555 51.1115 15.4636 51.3713C15.3766 51.6397 15.3319 51.921 15.3311 52.2043V57.8964H12.0081V47.392H15.1986V48.8268H15.2423C15.365 48.5816 15.5298 48.3621 15.7287 48.1793C15.9185 47.9561 16.1435 47.7685 16.3938 47.6244C16.6623 47.4732 16.9441 47.349 17.2352 47.2536C17.5515 47.1594 17.879 47.1128 18.2079 47.1152C18.8026 47.1078 19.3919 47.2343 19.9357 47.486C20.3824 47.7187 20.7753 48.0502 21.0871 48.4573C21.3814 48.8715 21.5924 49.3436 21.7072 49.8451C21.8343 50.3587 21.894 50.8879 21.8847 51.4183V57.8938H18.6991V57.8494ZM30.5735 50.7238C30.3718 50.4632 30.1133 50.2568 29.8196 50.1219C29.5128 49.9799 29.1824 49.9014 28.8469 49.8908C28.5238 49.8906 28.2051 49.9698 27.9167 50.1219C27.6343 50.2547 27.39 50.4621 27.2079 50.7238C27.0202 50.9842 26.8573 51.2632 26.7215 51.5567C26.4863 52.2116 26.4863 52.9333 26.7215 53.5882C26.8129 53.9047 26.9803 54.1914 27.2079 54.4212C27.4217 54.6815 27.6867 54.8906 27.9848 55.0343C28.283 55.1781 28.6073 55.253 28.9357 55.2541C29.2835 55.2603 29.6292 55.1973 29.9546 55.0687C30.2633 54.9387 30.537 54.7321 30.7522 54.4669L32.5687 56.8273C32.1099 57.2669 31.5658 57.5982 30.9735 57.7986C30.3027 58.0377 29.5995 58.1629 28.8907 58.1694C28.138 58.1703 27.39 58.0451 26.6753 57.7986C25.997 57.5768 25.3759 57.1969 24.8588 56.6876C24.3215 56.162 23.8975 55.5229 23.6149 54.813C23.3323 54.103 23.1976 53.3384 23.2198 52.5699C23.1991 51.7739 23.3503 50.9832 23.6624 50.2565C23.9459 49.5935 24.3526 48.9958 24.8588 48.498C25.3806 47.9953 26.0002 47.6163 26.6753 47.387C27.3856 47.1218 28.1366 46.9961 28.8907 47.0162C29.2468 47.0241 29.6021 47.055 29.9546 47.1089C30.3096 47.2016 30.6634 47.2943 30.9735 47.387C31.2919 47.5221 31.6024 47.6764 31.9036 47.8491C32.1671 48.012 32.406 48.2148 32.6125 48.451L30.5735 50.7238ZM40.2325 50.2159C40.0899 50.163 39.9409 50.1318 39.7899 50.1232H39.3911C39.0105 50.1189 38.6332 50.1976 38.2834 50.3543C38.0119 50.5049 37.7711 50.7093 37.5745 50.9561C37.3988 51.1923 37.2638 51.4587 37.1757 51.7434C37.0929 51.9808 37.0481 52.2309 37.0432 52.4836V57.8507H33.7189V47.3463H36.9094V48.87H36.9532C37.1985 48.3381 37.5824 47.8892 38.0609 47.5749C38.5478 47.2416 39.1177 47.065 39.6999 47.067H40.0987C40.2312 47.067 40.32 47.1127 40.4088 47.1127L40.2325 50.2159ZM48.0311 59.4239C47.8099 59.9787 47.5886 60.4396 47.3661 60.9043C47.1199 61.3147 46.8218 61.6884 46.4797 62.0153C46.1226 62.3178 45.7177 62.5528 45.2832 62.7099C44.7501 62.8673 44.1983 62.9451 43.6442 62.941C43.3194 62.9477 42.9945 62.9324 42.6715 62.8952C42.3855 62.8652 42.1034 62.8031 41.8301 62.7099L42.1852 59.7895L42.7165 59.9279C42.8911 59.9661 43.0696 59.9814 43.2478 59.9736C43.4468 59.9917 43.6472 59.9683 43.8374 59.9046C44.0276 59.841 44.2037 59.7384 44.3555 59.6029C44.6266 59.3016 44.8243 58.9367 44.9319 58.5389L45.2419 57.6602L41.0325 47.3413H44.7106L46.9709 54.0974H47.0147L49.0087 47.3413H52.5093L48.0311 59.4239ZM64.6025 52.5763C64.6113 53.2986 64.5065 54.0175 64.2924 54.7043C64.0809 55.3557 63.7665 55.9656 63.3623 56.5086C62.9423 57.023 62.4306 57.4473 61.8558 57.758C61.2229 58.0838 60.5232 58.2425 59.8179 58.2202C59.21 58.2134 58.6087 58.0876 58.0452 57.8494C57.5377 57.6137 57.0956 57.2476 56.76 56.7854H56.7162V63.0324H53.3883V47.4847H56.5338V48.7799H56.5776C56.9352 48.3283 57.3712 47.9513 57.8628 47.6688C58.461 47.3387 59.1321 47.1793 59.8082 47.2067C60.4985 47.1944 61.1818 47.3527 61.8023 47.6688C62.3842 47.947 62.899 48.3579 63.3088 48.8713C63.7126 49.3978 64.0272 49.9925 64.2389 50.6298C64.487 51.2452 64.6108 51.9074 64.6025 52.575V52.5763ZM61.3682 52.5763C61.3676 52.2476 61.323 51.9207 61.2357 51.605C61.1423 51.2995 60.9919 51.0164 60.7931 50.772C60.5915 50.5114 60.333 50.305 60.0392 50.1702C59.7194 50.0178 59.3719 49.9389 59.0203 49.9389C58.6687 49.9389 58.3213 50.0178 58.0014 50.1702C57.7147 50.3172 57.4586 50.5217 57.2476 50.772C57.0345 51.0308 56.8696 51.3287 56.7612 51.6507C56.5248 52.2751 56.5248 52.9701 56.7612 53.5946C56.8797 53.9116 57.0437 54.2078 57.2476 54.4732C57.4586 54.7236 57.7147 54.9281 58.0014 55.0751C58.3213 55.2272 58.6688 55.306 59.0203 55.3062C59.3724 55.3112 59.7209 55.2322 60.0392 55.0751C60.3259 54.9281 60.5821 54.7236 60.7931 54.4732C60.9922 54.212 61.1424 53.9139 61.2357 53.5946C61.3204 53.2618 61.3649 52.9193 61.3682 52.575V52.5763ZM69.8794 49.9391V53.9641C69.8484 54.355 69.942 54.7456 70.1457 55.0751C70.27 55.2103 70.4222 55.314 70.5908 55.3783C70.7595 55.4426 70.9399 55.4657 71.1184 55.4458C71.2966 55.4536 71.4751 55.4383 71.6497 55.4001C71.8007 55.367 71.9488 55.3207 72.0923 55.2617L72.1361 57.8012C71.5086 58.018 70.8516 58.1273 70.1907 58.1249C69.6177 58.142 69.0467 58.0477 68.5067 57.8469C68.0851 57.6965 67.7038 57.4436 67.3941 57.1092C67.1077 56.7658 66.9094 56.352 66.8178 55.9067C66.71 55.4063 66.6505 54.8959 66.6403 54.3831V49.9391H65.0463V47.3463H66.6415V44.5707H69.8758V47.3476H72.2236V49.9391H69.8794Z" fill="#3A3A3A"/>
</svg>
