<svg width="18" height="18" viewBox="0 0 18 18" fill="none" xmlns="http://www.w3.org/2000/svg">
<rect width="18" height="18" fill="#E5E5E5"/>
<g clip-path="url(#clip0_3_2)">
<rect width="1280" height="4804" transform="translate(-540 -7)" fill="#FDFDFD"/>
<g filter="url(#filter0_d_3_2)">
<g filter="url(#filter1_d_3_2)">
<rect x="-540" y="-7" width="1280" height="162" fill="white"/>
</g>
<rect x="-540" y="-7" width="1280" height="32" fill="#687DAA"/>
<path d="M12.805 17.3325H12.8284C13.2684 17.3325 13.6842 17.1591 13.9992 16.8441L16.2592 14.5841C16.3366 14.5068 16.3981 14.415 16.44 14.3139C16.4819 14.2128 16.5035 14.1044 16.5035 13.995C16.5035 13.8855 16.4819 13.7771 16.44 13.676C16.3981 13.575 16.3366 13.4831 16.2592 13.4058L12.9258 10.0725C12.8485 9.995 12.7567 9.93356 12.6556 9.89163C12.5545 9.84971 12.4461 9.82813 12.3367 9.82813C12.2272 9.82813 12.1189 9.84971 12.0178 9.89163C11.9167 9.93356 11.8248 9.995 11.7475 10.0725L10.4192 11.4008C9.80335 11.2175 8.65418 10.8008 7.92585 10.0725C7.19752 9.34413 6.78085 8.19496 6.59752 7.57913L7.92585 6.25079C8.00331 6.17347 8.06475 6.08163 8.10668 5.98054C8.1486 5.87944 8.17018 5.77107 8.17018 5.66163C8.17018 5.55218 8.1486 5.44381 8.10668 5.34272C8.06475 5.24162 8.00331 5.14978 7.92585 5.07246L4.59252 1.73913C4.4332 1.58875 4.22242 1.50499 4.00335 1.50499C3.78428 1.50499 3.5735 1.58875 3.41418 1.73913L1.15502 3.99913C0.838351 4.31579 0.660018 4.75079 0.666684 5.19496C0.685851 6.38163 1.00002 10.5033 4.24835 13.7516C7.49668 17 11.6183 17.3133 12.805 17.3325ZM4.00418 3.50663L6.15918 5.66163L5.08168 6.73913C4.98363 6.83691 4.9116 6.95767 4.87215 7.09042C4.83271 7.22316 4.82711 7.36366 4.85585 7.49913C4.87585 7.59496 5.36502 9.86746 6.74835 11.2508C8.13168 12.6341 10.4042 13.1233 10.5 13.1433C10.6355 13.1722 10.776 13.1667 10.9088 13.1272C11.0416 13.0878 11.1623 13.0156 11.26 12.9175L12.3375 11.84L14.4925 13.995L12.8208 15.6658C11.7808 15.6483 8.22252 15.3691 5.42668 12.5725C2.62168 9.76746 2.35002 6.19663 2.33335 5.17746L4.00418 3.50663ZM15.6659 8.16579H17.3325C17.3325 3.89079 14.105 0.666626 9.82418 0.666626V2.33329C13.2092 2.33329 15.6659 4.78579 15.6659 8.16579Z" fill="white" stroke="#7C91C8" stroke-width="0.5"/>
<path d="M9.83252 5.66667C11.585 5.66667 12.3325 6.41417 12.3325 8.16667H13.9992C13.9992 5.47917 12.52 4 9.83252 4V5.66667V5.66667Z" fill="white" stroke="#7C91C8" stroke-width="0.5"/>
</g>
</g>
<defs>
<filter id="filter0_d_3_2" x="-544" y="-7" width="1288" height="170" filterUnits="userSpaceOnUse" color-interpolation-filters="sRGB">
<feFlood flood-opacity="0" result="BackgroundImageFix"/>
<feColorMatrix in="SourceAlpha" type="matrix" values="0 0 0 0 0 0 0 0 0 0 0 0 0 0 0 0 0 0 127 0" result="hardAlpha"/>
<feOffset dy="4"/>
<feGaussianBlur stdDeviation="2"/>
<feComposite in2="hardAlpha" operator="out"/>
<feColorMatrix type="matrix" values="0 0 0 0 0 0 0 0 0 0 0 0 0 0 0 0 0 0 0.25 0"/>
<feBlend mode="normal" in2="BackgroundImageFix" result="effect1_dropShadow_3_2"/>
<feBlend mode="normal" in="SourceGraphic" in2="effect1_dropShadow_3_2" result="shape"/>
</filter>
<filter id="filter1_d_3_2" x="-550" y="-15" width="1300" height="182" filterUnits="userSpaceOnUse" color-interpolation-filters="sRGB">
<feFlood flood-opacity="0" result="BackgroundImageFix"/>
<feColorMatrix in="SourceAlpha" type="matrix" values="0 0 0 0 0 0 0 0 0 0 0 0 0 0 0 0 0 0 127 0" result="hardAlpha"/>
<feOffset dy="2"/>
<feGaussianBlur stdDeviation="5"/>
<feComposite in2="hardAlpha" operator="out"/>
<feColorMatrix type="matrix" values="0 0 0 0 0 0 0 0 0 0 0 0 0 0 0 0 0 0 0.1 0"/>
<feBlend mode="normal" in2="BackgroundImageFix" result="effect1_dropShadow_3_2"/>
<feBlend mode="normal" in="SourceGraphic" in2="effect1_dropShadow_3_2" result="shape"/>
</filter>
<clipPath id="clip0_3_2">
<rect width="1280" height="4804" fill="white" transform="translate(-540 -7)"/>
</clipPath>
</defs>
</svg>
