<svg width="20" height="21" viewBox="0 0 20 21" fill="none" xmlns="http://www.w3.org/2000/svg">
<path d="M17.91 14.1012H13.38C13.1148 14.1012 12.8604 14.2089 12.6729 14.4007C12.4854 14.5925 12.38 14.8526 12.38 15.1239C12.38 15.3951 12.4854 15.6553 12.6729 15.8471C12.8604 16.0389 13.1148 16.1466 13.38 16.1466H15.78C14.6769 17.3256 13.2544 18.1402 11.6952 18.486C10.1359 18.8318 8.51121 18.6928 7.02978 18.087C5.54834 17.4812 4.27787 16.4362 3.38159 15.0862C2.48531 13.7363 2.00418 12.1431 2 10.5114C2 10.2401 1.89464 9.98001 1.70711 9.78821C1.51957 9.59642 1.26522 9.48866 1 9.48866C0.734784 9.48866 0.48043 9.59642 0.292893 9.78821C0.105357 9.98001 0 10.2401 0 10.5114C0.00528666 12.5086 0.582221 14.4605 1.6596 16.1262C2.73699 17.7919 4.26767 19.0986 6.06274 19.8849C7.85782 20.6713 9.83873 20.9029 11.761 20.5511C13.6833 20.1994 15.4628 19.2798 16.88 17.9057V19.7159C16.88 19.9872 16.9854 20.2473 17.1729 20.4391C17.3604 20.6309 17.6148 20.7387 17.88 20.7387C18.1452 20.7387 18.3996 20.6309 18.5871 20.4391C18.7746 20.2473 18.88 19.9872 18.88 19.7159V15.1137C18.8775 14.8494 18.7752 14.5964 18.5943 14.4077C18.4135 14.2189 18.1683 14.1091 17.91 14.1012ZM10 0.284119C7.43639 0.291597 4.97349 1.30574 3.12 3.11707V1.30685C3.12 1.0356 3.01464 0.775467 2.82711 0.583669C2.63957 0.39187 2.38522 0.284119 2.12 0.284119C1.85478 0.284119 1.60043 0.39187 1.41289 0.583669C1.22536 0.775467 1.12 1.0356 1.12 1.30685V5.90912C1.12 6.18036 1.22536 6.4405 1.41289 6.6323C1.60043 6.8241 1.85478 6.93185 2.12 6.93185H6.62C6.88522 6.93185 7.13957 6.8241 7.32711 6.6323C7.51464 6.4405 7.62 6.18036 7.62 5.90912C7.62 5.63788 7.51464 5.37774 7.32711 5.18594C7.13957 4.99414 6.88522 4.88639 6.62 4.88639H4.22C5.32247 3.70808 6.74409 2.89361 8.3024 2.54752C9.86071 2.20144 11.4846 2.33954 12.9656 2.94409C14.4466 3.54864 15.7172 4.59206 16.6142 5.94042C17.5113 7.28877 17.9938 8.88054 18 10.5114C18 10.7826 18.1054 11.0428 18.2929 11.2346C18.4804 11.4264 18.7348 11.5341 19 11.5341C19.2652 11.5341 19.5196 11.4264 19.7071 11.2346C19.8946 11.0428 20 10.7826 20 10.5114C20 9.16833 19.7413 7.83841 19.2388 6.59758C18.7362 5.35675 17.9997 4.22931 17.0711 3.27962C16.1425 2.32993 15.0401 1.57659 13.8268 1.06262C12.6136 0.548655 11.3132 0.284119 10 0.284119Z" fill="white"/>
</svg>
