<svg width="24" height="26" viewBox="0 0 24 26" fill="none" xmlns="http://www.w3.org/2000/svg">
<path d="M3.33341 5.5C3.1566 5.5 2.98703 5.57183 2.86201 5.6997C2.73699 5.82757 2.66675 6.00099 2.66675 6.18182V21.1818C2.66675 21.3626 2.73699 21.5361 2.86201 21.6639C2.98703 21.7918 3.1566 21.8636 3.33341 21.8636C3.51023 21.8636 3.67979 21.7918 3.80482 21.6639C3.92984 21.5361 4.00008 21.3626 4.00008 21.1818V6.18182C4.00008 6.00099 3.92984 5.82757 3.80482 5.6997C3.67979 5.57183 3.51023 5.5 3.33341 5.5Z" fill="white"/>
<path d="M5.99992 5.5C5.82311 5.5 5.65354 5.57183 5.52851 5.6997C5.40349 5.82757 5.33325 6.00099 5.33325 6.18182V18.4545C5.33325 18.6354 5.40349 18.8088 5.52851 18.9367C5.65354 19.0645 5.82311 19.1364 5.99992 19.1364C6.17673 19.1364 6.3463 19.0645 6.47132 18.9367C6.59635 18.8088 6.66659 18.6354 6.66659 18.4545V6.18182C6.66659 6.00099 6.59635 5.82757 6.47132 5.6997C6.3463 5.57183 6.17673 5.5 5.99992 5.5Z" fill="white"/>
<path d="M8.66667 5.5C8.48986 5.5 8.32029 5.57183 8.19526 5.6997C8.07024 5.82757 8 6.00099 8 6.18182V18.4545C8 18.6354 8.07024 18.8088 8.19526 18.9367C8.32029 19.0645 8.48986 19.1364 8.66667 19.1364C8.84348 19.1364 9.01305 19.0645 9.13807 18.9367C9.2631 18.8088 9.33333 18.6354 9.33333 18.4545V6.18182C9.33333 6.00099 9.2631 5.82757 9.13807 5.6997C9.01305 5.57183 8.84348 5.5 8.66667 5.5Z" fill="white"/>
<path d="M11.3334 5.5C11.1566 5.5 10.987 5.57183 10.862 5.6997C10.737 5.82757 10.6667 6.00099 10.6667 6.18182V18.4545C10.6667 18.6354 10.737 18.8088 10.862 18.9367C10.987 19.0645 11.1566 19.1364 11.3334 19.1364C11.5102 19.1364 11.6798 19.0645 11.8048 18.9367C11.9298 18.8088 12.0001 18.6354 12.0001 18.4545V6.18182C12.0001 6.00099 11.9298 5.82757 11.8048 5.6997C11.6798 5.57183 11.5102 5.5 11.3334 5.5Z" fill="white"/>
<path d="M13.9999 5.5C13.8231 5.5 13.6535 5.57183 13.5285 5.6997C13.4035 5.82757 13.3333 6.00099 13.3333 6.18182V18.4545C13.3333 18.6354 13.4035 18.8088 13.5285 18.9367C13.6535 19.0645 13.8231 19.1364 13.9999 19.1364C14.1767 19.1364 14.3463 19.0645 14.4713 18.9367C14.5963 18.8088 14.6666 18.6354 14.6666 18.4545V6.18182C14.6666 6.00099 14.5963 5.82757 14.4713 5.6997C14.3463 5.57183 14.1767 5.5 13.9999 5.5Z" fill="white"/>
<path d="M16.6667 5.5C16.4899 5.5 16.3203 5.57183 16.1953 5.6997C16.0702 5.82757 16 6.00099 16 6.18182V18.4545C16 18.6354 16.0702 18.8088 16.1953 18.9367C16.3203 19.0645 16.4899 19.1364 16.6667 19.1364C16.8435 19.1364 17.013 19.0645 17.1381 18.9367C17.2631 18.8088 17.3333 18.6354 17.3333 18.4545V6.18182C17.3333 6.00099 17.2631 5.82757 17.1381 5.6997C17.013 5.57183 16.8435 5.5 16.6667 5.5Z" fill="white"/>
<path d="M19.3334 5.5C19.1566 5.5 18.987 5.57183 18.862 5.6997C18.737 5.82757 18.6667 6.00099 18.6667 6.18182V18.4545C18.6667 18.6354 18.737 18.8088 18.862 18.9367C18.987 19.0645 19.1566 19.1364 19.3334 19.1364C19.5102 19.1364 19.6798 19.0645 19.8048 18.9367C19.9298 18.8088 20.0001 18.6354 20.0001 18.4545V6.18182C20.0001 6.00099 19.9298 5.82757 19.8048 5.6997C19.6798 5.57183 19.5102 5.5 19.3334 5.5Z" fill="white"/>
<path d="M21.9999 5.5C21.8231 5.5 21.6535 5.57183 21.5285 5.6997C21.4035 5.82757 21.3333 6.00099 21.3333 6.18182V21.1818C21.3333 21.3626 21.4035 21.5361 21.5285 21.6639C21.6535 21.7918 21.8231 21.8636 21.9999 21.8636C22.1767 21.8636 22.3463 21.7918 22.4713 21.6639C22.5963 21.5361 22.6666 21.3626 22.6666 21.1818V6.18182C22.6666 6.00099 22.5963 5.82757 22.4713 5.6997C22.3463 5.57183 22.1767 5.5 21.9999 5.5Z" fill="white"/>
</svg>
