<svg width="24" height="20" viewBox="0 0 24 20" fill="none" xmlns="http://www.w3.org/2000/svg">
<path d="M3.27586e-09 3.09661C3.27586e-09 2.48631 0.237053 1.90101 0.65901 1.46946C1.08097 1.03791 1.65326 0.795471 2.25 0.795471H15.75C16.3467 0.795471 16.919 1.03791 17.341 1.46946C17.7629 1.90101 18 2.48631 18 3.09661V5.39774H19.53C19.8671 5.39805 20.1998 5.47583 20.5036 5.62532C20.8074 5.77482 21.0744 5.99221 21.285 6.26144L23.5065 9.09951C23.8261 9.50786 24.0002 10.0154 24 10.5385V13.8352C24 14.4455 23.7629 15.0308 23.341 15.4624C22.919 15.8939 22.3467 16.1364 21.75 16.1364H21C21 16.9501 20.6839 17.7305 20.1213 18.3059C19.5587 18.8813 18.7956 19.2046 18 19.2046C17.2044 19.2046 16.4413 18.8813 15.8787 18.3059C15.3161 17.7305 15 16.9501 15 16.1364H7.5C7.50086 16.5453 7.42177 16.9504 7.26738 17.3276C7.11299 17.7049 6.88642 18.0467 6.60097 18.3332C6.31553 18.6196 5.97698 18.8447 5.60523 18.9954C5.23348 19.146 4.83603 19.2192 4.43624 19.2105C4.03645 19.2018 3.6424 19.1115 3.27725 18.9448C2.91209 18.7781 2.5832 18.5384 2.30992 18.2398C2.03664 17.9413 1.82447 17.5899 1.6859 17.2062C1.54733 16.8226 1.48514 16.4145 1.503 16.006C1.06357 15.8478 0.682984 15.554 0.413766 15.1652C0.144548 14.7764 -2.51279e-05 14.3117 3.27586e-09 13.8352L3.27586e-09 3.09661ZM1.941 14.5348C2.2122 14.0807 2.59427 13.7066 3.04965 13.4492C3.50503 13.1918 4.01805 13.0601 4.53829 13.0669C5.05853 13.0737 5.56809 13.2188 6.01688 13.488C6.46567 13.7572 6.83825 14.1412 7.098 14.6023H15.402C15.6659 14.1363 16.0444 13.7492 16.5 13.4793V3.09661C16.5 2.89317 16.421 2.69807 16.2803 2.55422C16.1397 2.41038 15.9489 2.32956 15.75 2.32956H2.25C2.05109 2.32956 1.86032 2.41038 1.71967 2.55422C1.57902 2.69807 1.5 2.89317 1.5 3.09661V13.8352C1.49988 13.9829 1.54143 14.1274 1.61966 14.2515C1.69788 14.3756 1.80946 14.474 1.941 14.5348ZM18 13.0682C18.5266 13.0682 19.0439 13.21 19.5 13.4793C19.956 13.7486 20.3347 14.1359 20.598 14.6023H21.75C21.9489 14.6023 22.1397 14.5215 22.2803 14.3776C22.421 14.2338 22.5 14.0387 22.5 13.8352V10.5369C22.4997 10.3629 22.4415 10.1941 22.335 10.0583L20.115 7.22024C20.0449 7.13041 19.9559 7.05785 19.8546 7.00792C19.7533 6.958 19.6424 6.932 19.53 6.93183H18V13.0682ZM4.5 14.6023C4.10218 14.6023 3.72064 14.7639 3.43934 15.0516C3.15804 15.3393 3 15.7295 3 16.1364C3 16.5432 3.15804 16.9334 3.43934 17.2211C3.72064 17.5088 4.10218 17.6705 4.5 17.6705C4.89782 17.6705 5.27936 17.5088 5.56066 17.2211C5.84196 16.9334 6 16.5432 6 16.1364C6 15.7295 5.84196 15.3393 5.56066 15.0516C5.27936 14.7639 4.89782 14.6023 4.5 14.6023ZM18 14.6023C17.6022 14.6023 17.2206 14.7639 16.9393 15.0516C16.658 15.3393 16.5 15.7295 16.5 16.1364C16.5 16.5432 16.658 16.9334 16.9393 17.2211C17.2206 17.5088 17.6022 17.6705 18 17.6705C18.3978 17.6705 18.7794 17.5088 19.0607 17.2211C19.342 16.9334 19.5 16.5432 19.5 16.1364C19.5 15.7295 19.342 15.3393 19.0607 15.0516C18.7794 14.7639 18.3978 14.6023 18 14.6023Z" fill="white"/>
</svg>
