<svg width="20" height="22" viewBox="0 0 20 22" fill="none" xmlns="http://www.w3.org/2000/svg">
<path d="M13.805 19.789H13.8284C14.2684 19.789 14.6842 19.6094 14.9992 19.2831L17.2592 16.9414C17.3366 16.8613 17.3981 16.7662 17.44 16.6614C17.4819 16.5567 17.5035 16.4444 17.5035 16.331C17.5035 16.2176 17.4819 16.1053 17.44 16.0005C17.3981 15.8958 17.3366 15.8006 17.2592 15.7205L13.9258 12.2668C13.8485 12.1865 13.7567 12.1229 13.6556 12.0794C13.5545 12.036 13.4461 12.0136 13.3367 12.0136C13.2272 12.0136 13.1189 12.036 13.0178 12.0794C12.9167 12.1229 12.8248 12.1865 12.7475 12.2668L11.4192 13.6431C10.8034 13.4532 9.65418 13.0214 8.92585 12.2668C8.19752 11.5122 7.78085 10.3215 7.59752 9.68341L8.92585 8.3071C9.00331 8.22698 9.06475 8.13183 9.10668 8.02708C9.1486 7.92234 9.17018 7.81005 9.17018 7.69665C9.17018 7.58326 9.1486 7.47097 9.10668 7.36622C9.06475 7.26148 9.00331 7.16632 8.92585 7.08621L5.59252 3.63248C5.4332 3.47667 5.22242 3.38988 5.00335 3.38988C4.78428 3.38988 4.5735 3.47667 4.41418 3.63248L2.15502 5.97411C1.83835 6.30221 1.66002 6.75292 1.66668 7.21313C1.68585 8.44266 2.00002 12.7132 5.24835 16.0789C8.49668 19.4445 12.6183 19.7692 13.805 19.789ZM5.00418 5.46382L7.15918 7.69665L6.08168 8.81307C5.98363 8.91439 5.9116 9.03951 5.87215 9.17705C5.83271 9.31459 5.82711 9.46017 5.85585 9.60052C5.87585 9.69982 6.36502 12.0544 7.74835 13.4877C9.13168 14.921 11.4042 15.4278 11.5 15.4485C11.6355 15.4785 11.776 15.4728 11.9088 15.4319C12.0416 15.391 12.1623 15.3163 12.26 15.2146L13.3375 14.0981L15.4925 16.331L13.8208 18.0622C12.7808 18.044 9.22252 17.7548 6.42668 14.8571C3.62168 11.9508 3.35002 8.25098 3.33335 7.195L5.00418 5.46382ZM16.6659 10.2913H18.3325C18.3325 5.86186 15.105 2.52124 10.8242 2.52124V4.2481C14.2092 4.2481 16.6659 6.78919 16.6659 10.2913Z" fill="white" stroke="#7C91C8" stroke-width="0.5"/>
<path d="M10.8325 7.70196C12.585 7.70196 13.3325 8.47646 13.3325 10.2923H14.9992C14.9992 7.50769 13.52 5.9751 10.8325 5.9751V7.70196Z" fill="white" stroke="#7C91C8" stroke-width="0.5"/>
</svg>
