<svg width="22" height="22" viewBox="0 0 22 22" fill="none" xmlns="http://www.w3.org/2000/svg">
<path fill-rule="evenodd" clip-rule="evenodd" d="M18.0859 3.2738C17.1634 2.31625 16.0658 1.55699 14.8567 1.04C13.6476 0.523006 12.3511 0.258565 11.0421 0.261996C5.55351 0.261996 1.08541 4.86836 1.08319 10.5305C1.08319 12.3401 1.54132 14.1062 2.41209 15.6642L1 20.9843L6.27897 19.5556C7.73919 20.3753 9.37513 20.8051 11.0377 20.8059H11.0421C16.5296 20.8059 20.9977 16.1995 21 10.5374C21.0037 9.18816 20.7481 7.85156 20.248 6.60482C19.7478 5.35808 19.013 4.22593 18.0859 3.2738ZM11.0421 19.0729H11.0388C9.5563 19.0731 8.10108 18.6618 6.82583 17.8822L6.52411 17.6968L3.39156 18.5445L4.22684 15.3954L4.0305 15.0728C3.20165 13.7121 2.76287 12.1374 2.76483 10.5305C2.76705 5.82463 6.47974 1.9961 11.0455 1.9961C12.1328 1.99361 13.2098 2.21353 14.2142 2.64313C15.2186 3.07273 16.1304 3.70349 16.8968 4.49889C17.6673 5.29049 18.278 6.23173 18.6937 7.26819C19.1093 8.30466 19.3216 9.41579 19.3183 10.5374C19.3161 15.2432 15.6034 19.0729 11.0421 19.0729ZM15.5823 12.6798C15.3327 12.5506 14.1103 11.9306 13.8818 11.8448C13.6544 11.759 13.4892 11.7167 13.3228 11.9729C13.1564 12.2292 12.6794 12.8068 12.5341 12.9784C12.3888 13.15 12.2435 13.1706 11.995 13.0424C11.7465 12.9143 10.9445 12.6432 9.99388 11.7693C9.254 11.0887 8.75484 10.2491 8.60952 9.99175C8.46421 9.73438 8.59399 9.59597 8.71934 9.46785C8.83137 9.35347 8.96781 9.16816 9.09205 9.01831C9.21629 8.86847 9.25733 8.76209 9.34053 8.59051C9.42372 8.41893 9.38268 8.26908 9.31945 8.14097C9.25733 8.01171 8.75927 6.74888 8.55184 6.23528C8.35107 5.7377 8.14585 5.80404 7.99277 5.79718C7.83424 5.79049 7.67557 5.78744 7.5169 5.78803C7.39073 5.79134 7.26658 5.8215 7.15224 5.87662C7.03791 5.93173 6.93584 6.01061 6.85246 6.10831C6.62395 6.36568 5.98169 6.98566 5.98169 8.24849C5.98169 9.51132 6.87353 10.7318 6.99777 10.9034C7.12201 11.075 8.75262 13.6659 11.2485 14.7777C11.843 15.0419 12.3067 15.1998 12.6672 15.3187C13.2629 15.5143 13.8053 15.4858 14.2346 15.4206C14.7127 15.3473 15.7066 14.8006 15.914 14.2012C16.1214 13.6018 16.1214 13.0882 16.0593 12.9807C15.9972 12.8732 15.8297 12.808 15.5823 12.6798Z" fill="white" stroke="#7C91C8" stroke-width="0.2"/>
</svg>
