<svg width="23" height="24" viewBox="0 0 23 24" fill="none" xmlns="http://www.w3.org/2000/svg">
<g clip-path="url(#clip0_3053_423)">
<path d="M11.4985 5.71216C8.3757 5.71216 5.84753 8.24308 5.84753 11.3631C5.84753 14.486 8.37845 17.0141 11.4985 17.0141C14.6213 17.0141 17.1495 14.4832 17.1495 11.3631C17.1495 8.24033 14.6186 5.71216 11.4985 5.71216ZM11.4985 15.031C9.47139 15.031 7.83061 13.3893 7.83061 11.3631C7.83061 9.33694 9.47231 7.69523 11.4985 7.69523C13.5247 7.69523 15.1664 9.33694 15.1664 11.3631C15.1673 13.3893 13.5256 15.031 11.4985 15.031Z" fill="#3A3A3A"/>
<path d="M16.0351 0.425625C14.0089 0.331106 8.99018 0.335694 6.96214 0.425625C5.18004 0.509133 3.60808 0.939517 2.34078 2.20681C0.222809 4.32478 0.49352 7.17872 0.49352 11.3642C0.49352 15.6479 0.254927 18.4357 2.34078 20.5216C4.46701 22.6469 7.36224 22.3688 11.4982 22.3688C15.7414 22.3688 17.206 22.3716 18.7064 21.7907C20.7464 20.9988 22.2862 19.1754 22.4367 15.9002C22.5322 13.8731 22.5267 8.8553 22.4367 6.82726C22.255 2.96113 20.1802 0.616499 16.0351 0.425625ZM19.2423 19.1203C17.8539 20.5087 15.9277 20.3848 11.4715 20.3848C6.88322 20.3848 5.0433 20.4527 3.70076 19.1065C2.15449 17.5676 2.43438 15.0963 2.43438 11.3495C2.43438 6.27941 1.91407 2.62802 7.00252 2.3674C8.17162 2.32611 8.51575 2.31234 11.4587 2.31234L11.5 2.33987C16.3902 2.33987 20.227 1.82782 20.4573 6.91535C20.5096 8.0762 20.5216 8.42491 20.5216 11.3633C20.5206 15.8984 20.6069 17.7493 19.2423 19.1203Z" fill="#3A3A3A"/>
<path d="M17.3735 6.8095C18.1028 6.8095 18.694 6.21828 18.694 5.48898C18.694 4.75967 18.1028 4.16846 17.3735 4.16846C16.6442 4.16846 16.053 4.75967 16.053 5.48898C16.053 6.21828 16.6442 6.8095 17.3735 6.8095Z" fill="#3A3A3A"/>
</g>
<defs>
<clipPath id="clip0_3053_423">
<rect width="22.024" height="22.8194" fill="white" transform="translate(0.48291 0.354736)"/>
</clipPath>
</defs>
</svg>
