<svg width="23" height="19" viewBox="0 0 23 19" fill="none" xmlns="http://www.w3.org/2000/svg">
<path d="M20.2678 4.88204C21.1635 4.2461 21.9169 3.45232 22.5308 2.53832V2.5374C21.7113 2.89621 20.8395 3.1348 19.9292 3.25043C20.8652 2.69157 21.5801 1.81337 21.916 0.755299C21.0433 1.27562 20.0797 1.64268 19.0528 1.84824C18.2242 0.965444 17.0432 0.419434 15.7548 0.419434C13.255 0.419434 11.2426 2.44839 11.2426 4.93526C11.2426 5.29315 11.2729 5.63728 11.3472 5.96488C7.59396 5.78135 4.27202 3.98273 2.04025 1.24166C1.65116 1.91798 1.42175 2.69157 1.42175 3.52389C1.42175 5.0876 2.22654 6.47327 3.42776 7.27623C2.70189 7.26246 1.9907 7.0514 1.38779 6.72012V6.76968C1.38779 8.96381 2.95241 10.7863 5.00523 11.2066C4.63725 11.3075 4.23714 11.3552 3.82144 11.3552C3.53238 11.3552 3.24056 11.3387 2.9671 11.2782C3.55165 13.0658 5.21262 14.3808 7.1856 14.4239C5.64943 15.6251 3.69847 16.3492 1.58693 16.3492C1.21711 16.3492 0.861972 16.3327 0.506836 16.2877C2.50735 17.577 4.87676 18.3139 7.43337 18.3139C15.4015 18.3139 20.5945 11.6663 20.2678 4.88204Z" fill="#3A3A3A"/>
</svg>
