<svg width="23" height="17" viewBox="0 0 23 17" fill="none" xmlns="http://www.w3.org/2000/svg">
<path d="M22.0675 2.79567L22.095 2.97553C21.8289 2.03126 21.1103 1.30263 20.1973 1.03743L20.178 1.03284C18.461 0.566663 11.5519 0.566663 11.5519 0.566663C11.5519 0.566663 4.66028 0.557486 2.92589 1.03284C1.99538 1.30263 1.27593 2.03126 1.0144 2.95626L1.00981 2.97553C0.368361 6.32593 0.363772 10.3517 1.03826 13.9389L1.00981 13.7572C1.27593 14.7015 1.99446 15.4301 2.90754 15.6953L2.92681 15.6999C4.64193 16.167 11.5529 16.167 11.5529 16.167C11.5529 16.167 18.4436 16.167 20.1789 15.6999C21.1103 15.4301 21.8298 14.7015 22.0913 13.7765L22.0959 13.7572C22.3877 12.199 22.5548 10.4059 22.5548 8.57421C22.5548 8.50722 22.5548 8.43931 22.5538 8.3714C22.5548 8.309 22.5548 8.23467 22.5548 8.16034C22.5548 6.32776 22.3877 4.53465 22.0675 2.79567ZM9.34771 11.7172V5.02468L15.0978 8.37599L9.34771 11.7172Z" fill="#3A3A3A"/>
</svg>
