<svg width="27" height="23" viewBox="0 0 27 23" fill="none" xmlns="http://www.w3.org/2000/svg">
<path d="M12.2377 7.9803C12.2377 11.1167 11.2558 13.9975 9.29221 16.6227C7.30519 19.2712 4.78052 21.397 1.71818 23L0 20.8394C1.56623 19.5849 2.94545 18.1909 4.13766 16.6576C5.30649 15.1242 5.89091 13.5909 5.89091 12.0576C5.89091 11.198 5.72727 10.6172 5.4 10.3152C5.04935 10.0131 4.6052 9.71111 4.06753 9.40909C3.41299 9.01414 2.79351 8.44495 2.20909 7.70152C1.62468 6.98132 1.33247 6.04041 1.33247 4.87879C1.33247 3.50808 1.78831 2.34647 2.7 1.39394C3.61169 0.464646 4.79221 0 6.24156 0C7.83117 0 9.23377 0.662121 10.4494 1.98636C11.6416 3.31061 12.2377 5.30859 12.2377 7.9803ZM27 7.9803C27 11.1167 26.0182 13.9975 24.0545 16.6227C22.0675 19.2712 19.5429 21.397 16.4805 23L14.7623 20.8394C16.3286 19.5849 17.7078 18.1909 18.9 16.6576C20.0688 15.1242 20.6532 13.5909 20.6532 12.0576C20.6532 11.198 20.4896 10.6172 20.1623 10.3152C19.8117 10.0131 19.3675 9.71111 18.8299 9.40909C18.1753 9.01414 17.5558 8.44495 16.9714 7.70152C16.387 6.98132 16.0948 6.04041 16.0948 4.87879C16.0948 3.50808 16.5506 2.34647 17.4623 1.39394C18.374 0.464646 19.5545 0 21.0039 0C22.5935 0 23.9961 0.662121 25.2117 1.98636C26.4039 3.31061 27 5.30859 27 7.9803Z" fill="#7C91C8"/>
</svg>
