<svg width="60" height="22" viewBox="0 0 60 22" fill="none" xmlns="http://www.w3.org/2000/svg">
<path d="M5.91431 6.0705H7.96033L6.93758 3.38916L5.91431 6.0705Z" fill="#3A3A3A"/>
<path d="M16.7954 15.071V16.3161H20.2366V17.6571H16.7954V19.0939H20.6084L22.3754 17.0824L20.7015 15.071H16.7954Z" fill="#3A3A3A"/>
<path d="M43.6728 3.38916L42.5566 6.0705H44.6959L43.6728 3.38916Z" fill="#3A3A3A"/>
<path d="M26.7468 19.8586V14.4004L24.3286 17.0819L26.7468 19.8586Z" fill="#3A3A3A"/>
<path d="M31.304 15.9333C31.2109 15.3587 30.8385 15.071 30.2802 15.071H28.3276V16.7947H30.3739C30.9317 16.7948 31.304 16.5077 31.304 15.9333Z" fill="#3A3A3A"/>
<path d="M37.8132 16.6045C37.9992 16.5085 38.0926 16.2209 38.0926 15.9342C38.1857 15.5515 37.9992 15.3597 37.8132 15.2638C37.6277 15.168 37.3483 15.168 37.0697 15.168H35.2092V16.7003H37.0695C37.3481 16.7003 37.6275 16.7003 37.8132 16.6045Z" fill="#3A3A3A"/>
<path d="M51.205 0.899902V2.04901L50.6474 0.899902H46.2768V2.04901L45.7185 0.899902H39.7665C38.7436 0.899902 37.9062 1.0916 37.1625 1.47459V0.899902H32.9777V0.995752V1.47459C32.5128 1.09174 31.9548 0.899902 31.2107 0.899902H16.2377L15.2142 3.29396L14.1914 0.899902H10.8436H9.44848V2.04901L8.98343 0.899902H8.89035H4.89141L3.03111 5.40046L0.892349 10.2841L0.853027 10.3801H0.892349H5.63545H5.69484L5.72854 10.2841L6.28681 8.84804H7.49576L8.05375 10.3801H13.4473V10.2841V9.23102L13.9126 10.38H16.6093L17.0741 9.23102V10.2841V10.3801H19.2132H29.9083H30.0014V7.89022H30.1878C30.3736 7.89022 30.3736 7.89022 30.3736 8.17764V10.2843H37.0697V9.70973C37.6277 9.99742 38.4642 10.2843 39.5803 10.2843H42.3707L42.9287 8.75246H44.2303L44.7883 10.2843H50.1821V9.32688V8.84817L51.0195 10.2843H51.205H51.2984H55.3904V0.899902H51.2053H51.205ZM19.6785 8.94403H18.7482H18.1904V8.36989V3.67708L18.0973 3.89674V3.89412L15.9338 8.94403H15.8653H15.3679H14.5631L12.3313 3.67708V8.94403H9.16948L8.51853 7.50765H5.35619L4.7051 8.94403H3.0703L5.8215 2.24071H8.14631L10.7502 8.65647V2.24071H11.3081H13.2142L13.258 2.33669H13.2612L14.4346 4.96624L15.2772 6.9364L15.307 6.83711L17.1669 2.24084H19.6783V8.94403H19.6785ZM26.0957 3.67708H22.4686V4.9219H26.0026V6.26242H22.4686V7.6035H26.0957V9.03946H20.8877V2.24084H26.0957V3.67708ZM32.7289 6.14633C32.7313 6.14853 32.7344 6.15005 32.7373 6.15211C32.7725 6.1904 32.8026 6.22882 32.8283 6.26559C33.0064 6.50604 33.1505 6.86369 33.1577 7.38811C33.1583 7.3972 33.1587 7.40615 33.1592 7.41524C33.1592 7.42047 33.1601 7.42502 33.1601 7.43039C33.1601 7.43342 33.1599 7.43576 33.1599 7.43865C33.162 7.4914 33.1633 7.54525 33.1633 7.6035V8.94416H31.7686V8.17777C31.7686 7.79479 31.7686 7.2201 31.4892 6.83711C31.4013 6.74663 31.3124 6.687 31.2156 6.64458C31.0762 6.55163 30.812 6.55011 30.3736 6.55011H28.6991V8.94416H27.1185V2.24084H30.6528C31.4892 2.24084 32.0475 2.24084 32.5127 2.52812C32.9683 2.80988 33.2436 3.27715 33.254 4.0171C33.2325 5.0362 32.5972 5.59533 32.1404 5.78386C32.1404 5.78386 32.4507 5.84817 32.7289 6.14633ZM35.8606 8.94403H34.2795V2.24071H35.8606V8.94403ZM53.9958 8.94403H51.9494L48.9735 3.86851V8.08192L48.9638 8.07201V8.94816H47.3927V8.94416H45.8115L45.2535 7.50779H41.9982L41.4402 9.0396H39.6733C38.9297 9.0396 37.9991 8.84831 37.4414 8.27376C36.8834 7.69921 36.6047 6.9331 36.6047 5.68842C36.6047 4.73088 36.7904 3.77266 37.4414 3.00682C37.906 2.43185 38.7434 2.24084 39.7662 2.24084H41.2546V3.67708H39.7662C39.2082 3.67708 38.9297 3.77252 38.557 4.06034C38.2785 4.34748 38.0924 4.9219 38.0924 5.59216C38.0924 6.35841 38.1854 6.83711 38.557 7.2201C38.8367 7.50779 39.2083 7.60364 39.6733 7.60364H40.3242L42.463 2.33697H43.3935H44.7882L47.3925 8.75274V8.42552V6.2627V6.07141V2.33711H49.7173L52.4138 7.02909V2.33711H53.9955V8.9443H53.9958V8.94403Z" fill="#3A3A3A"/>
<path d="M31.4027 5.03131C31.4298 5.00143 31.4544 4.96755 31.4753 4.92871C31.5596 4.79141 31.6561 4.54408 31.6041 4.20654C31.602 4.17555 31.5965 4.1469 31.5901 4.11922C31.5883 4.11151 31.5886 4.10476 31.5866 4.09705L31.5856 4.09719C31.5394 3.93317 31.4213 3.83236 31.3034 3.77122C31.117 3.67578 30.838 3.67578 30.5591 3.67578H28.6987V5.20814H30.5591C30.838 5.20814 31.1171 5.20814 31.3034 5.11215C31.3314 5.09755 31.3563 5.07772 31.3802 5.05527L31.3805 5.05651C31.3806 5.05638 31.3901 5.04619 31.4027 5.03131Z" fill="#3A3A3A"/>
<path d="M59.4828 18.5195C59.4828 17.8492 59.297 17.1787 59.0181 16.7V12.391H59.0139V12.1033C59.0139 12.1033 55.1158 12.1033 54.5356 12.1033C53.9556 12.1033 53.2519 12.6777 53.2519 12.6777V12.1033H48.9741C48.3227 12.1033 47.4862 12.295 47.1138 12.6777V12.1033H39.488V12.391V12.6776C38.9304 12.1992 37.9065 12.1032 37.4419 12.1032H32.4198V12.3909V12.6774C31.9549 12.199 30.8383 12.103 30.2801 12.103H24.7009L23.3986 13.5395L22.1895 12.103H21.8002H21.1666H13.8198V12.3907V13.1472V21.7752H22.0039L23.3486 20.3902L24.5142 21.7752H24.6076H29.3232H29.537H29.6301H29.7226V20.8177V19.5729H30.1879C30.8383 19.5729 31.6757 19.5729 32.3267 19.2852V21.679V21.8709H36.5118V21.679V19.381H36.6973C36.9767 19.381 36.9767 19.381 36.9767 19.6683V21.679V21.8709H49.6243C50.462 21.8709 51.2985 21.679 51.7634 21.296V21.679V21.8709H55.7627C56.5992 21.8709 57.4368 21.7752 57.9948 21.392C58.8511 20.863 59.3908 19.9267 59.471 18.8099C59.4748 18.7769 59.4794 18.7438 59.4824 18.7106L59.4769 18.7053C59.4804 18.6433 59.4828 18.582 59.4828 18.5195ZM30.1881 17.9451H28.3276V18.2317V18.8065V19.3812V20.4346H25.2708L23.4917 18.3276L23.4855 18.3347L23.3986 18.2317L21.3527 20.4346H15.4007V13.7315H21.4457L23.0973 15.5941L23.4445 15.9841L23.4916 15.9339L25.4448 13.7317H30.3737C31.3303 13.7317 32.4015 13.9747 32.8074 14.9769C32.8562 15.1753 32.8846 15.396 32.8846 15.6466C32.8846 17.5617 31.5825 17.9451 30.1881 17.9451ZM39.488 17.8491C39.6737 18.1357 39.7668 18.5193 39.7668 19.0942V20.4344H38.1861V19.5729C38.1861 19.1892 38.1861 18.5193 37.9067 18.2317C37.7212 17.9451 37.3487 17.9451 36.7911 17.9451H35.1172V20.4346H33.5363V13.6357H37.0701C37.8136 13.6357 38.4645 13.6357 38.9304 13.9227C39.395 14.2102 39.7668 14.6891 39.7668 15.4552C39.7668 16.5083 39.1162 17.0828 38.651 17.2747C39.1162 17.4654 39.395 17.6575 39.488 17.8491ZM45.9052 15.0715H42.2777V16.3164H45.8118V17.6574H42.2777V18.9982H45.9052V20.4344H40.6972V13.6355H45.9052V15.0715ZM49.8109 20.4346H46.8348V18.9983H49.8109C50.0894 18.9983 50.2758 18.9983 50.4623 18.8066C50.5554 18.7106 50.6478 18.5195 50.6478 18.3278C50.6478 18.1358 50.5554 17.9452 50.4623 17.8492C50.3689 17.7535 50.1826 17.6577 49.9037 17.6577C48.4157 17.5618 46.6487 17.6577 46.6487 15.5512C46.6487 14.5935 47.2067 13.54 48.8808 13.54H51.9497V15.1676H49.0669C48.788 15.1676 48.6017 15.1676 48.4155 15.2635C48.23 15.3595 48.23 15.5512 48.23 15.7424C48.23 16.0299 48.4155 16.1257 48.6016 16.2207C48.788 16.3167 48.9738 16.3167 49.1596 16.3167H49.9967C50.8338 16.3167 51.3917 16.5083 51.7636 16.8914C52.0428 17.1788 52.2288 17.6577 52.2288 18.3278C52.2288 19.7638 51.3918 20.4346 49.8109 20.4346ZM57.8089 19.7637C57.4374 20.1473 56.786 20.4346 55.8557 20.4346H52.8803V18.9983H55.8555C56.1347 18.9983 56.3211 18.9983 56.5069 18.8066C56.5996 18.7106 56.6929 18.5195 56.6929 18.3278C56.6929 18.1358 56.5996 17.9452 56.5069 17.8492C56.4138 17.7535 56.228 17.6577 55.9489 17.6577C54.4613 17.5618 52.6939 17.6577 52.6939 15.5513C52.6939 14.6411 53.1996 13.819 54.4468 13.5748C54.5959 13.5536 54.7535 13.54 54.926 13.54H57.9952V15.1676H55.9489H55.2051H55.112C54.8329 15.1676 54.6471 15.1676 54.4613 15.2635C54.3677 15.3595 54.2746 15.5512 54.2746 15.7424C54.2746 16.0299 54.3677 16.1257 54.6471 16.2207C54.8329 16.3167 55.0189 16.3167 55.2051 16.3167H55.2975H56.0418C56.4483 16.3167 56.7557 16.3684 57.0369 16.4701C57.2945 16.5661 58.1473 16.9589 58.338 17.9842C58.3546 18.0916 58.3668 18.2037 58.3668 18.3278C58.3668 18.9025 58.1807 19.3812 57.8089 19.7637Z" fill="#3A3A3A"/>
</svg>
