<svg width="35" height="26" viewBox="0 0 35 26" fill="none" xmlns="http://www.w3.org/2000/svg">
<path d="M6.04767 5.12402C5.4257 5.12402 4.92139 5.64323 4.92139 6.28371V20.1996C4.92139 20.84 5.42564 21.3593 6.04767 21.3593C6.6697 21.3593 7.17395 20.8401 7.17395 20.1996V6.28371C7.17395 5.6433 6.6697 5.12402 6.04767 5.12402Z" fill="#3A3A3A"/>
<path d="M15.0577 5.12402C14.4357 5.12402 13.9314 5.64323 13.9314 6.28371V15.561C13.9314 16.2014 14.4356 16.7206 15.0577 16.7206C15.6796 16.7206 16.184 16.2014 16.184 15.561V6.28371C16.184 5.6433 15.6797 5.12402 15.0577 5.12402Z" fill="#3A3A3A"/>
<path d="M24.8184 5.12402C24.1965 5.12402 23.6921 5.64323 23.6921 6.28371V15.561C23.6921 16.2014 24.1964 16.7206 24.8184 16.7206C25.4405 16.7206 25.9447 16.2014 25.9447 15.561V6.28371C25.9447 5.6433 25.4405 5.12402 24.8184 5.12402Z" fill="#3A3A3A"/>
<path d="M29.3235 5.12402C28.7016 5.12402 28.1973 5.64323 28.1973 6.28371V20.1996C28.1973 20.84 28.7015 21.3593 29.3235 21.3593C29.9456 21.3593 30.4498 20.8401 30.4498 20.1996V6.28371C30.4498 5.6433 29.9455 5.12402 29.3235 5.12402Z" fill="#3A3A3A"/>
<path d="M15.0577 21.3594C15.6797 21.3594 16.184 20.8402 16.184 20.1997C16.184 19.5592 15.6797 19.04 15.0577 19.04C14.4356 19.04 13.9314 19.5592 13.9314 20.1997C13.9314 20.8402 14.4356 21.3594 15.0577 21.3594Z" fill="#3A3A3A"/>
<path d="M19.5628 5.12402C18.9408 5.12402 18.4365 5.64323 18.4365 6.28371V15.561C18.4365 16.2014 18.9408 16.7206 19.5628 16.7206C20.1847 16.7206 20.689 16.2014 20.689 15.561V6.28371C20.689 5.6433 20.1848 5.12402 19.5628 5.12402Z" fill="#3A3A3A"/>
<path d="M19.5628 21.3594C20.1848 21.3594 20.689 20.8402 20.689 20.1997C20.689 19.5592 20.1848 19.04 19.5628 19.04C18.9408 19.04 18.4365 19.5592 18.4365 20.1997C18.4365 20.8402 18.9408 21.3594 19.5628 21.3594Z" fill="#3A3A3A"/>
<path d="M10.5526 5.12402C9.93059 5.12402 9.42627 5.64323 9.42627 6.28371V15.561C9.42627 16.2014 9.93052 16.7206 10.5526 16.7206C11.1746 16.7206 11.6788 16.2014 11.6788 15.561V6.28371C11.6788 5.6433 11.1745 5.12402 10.5526 5.12402Z" fill="#3A3A3A"/>
<path d="M10.5526 21.3594C11.1746 21.3594 11.6788 20.8402 11.6788 20.1997C11.6788 19.5592 11.1746 19.04 10.5526 19.04C9.93052 19.04 9.42627 19.5592 9.42627 20.1997C9.42627 20.8402 9.93052 21.3594 10.5526 21.3594Z" fill="#3A3A3A"/>
<path d="M24.8184 21.3594C25.4404 21.3594 25.9447 20.8402 25.9447 20.1997C25.9447 19.5592 25.4404 19.04 24.8184 19.04C24.1964 19.04 23.6921 19.5592 23.6921 20.1997C23.6921 20.8402 24.1964 21.3594 24.8184 21.3594Z" fill="#3A3A3A"/>
<path d="M31.576 0.485107H3.79525C1.93221 0.485107 0.416504 2.04578 0.416504 3.96409V22.5186C0.416504 24.4369 1.93221 25.9976 3.79525 25.9976H31.576C33.4391 25.9976 34.9548 24.4369 34.9548 22.5186V3.96409C34.9548 2.04578 33.4391 0.485107 31.576 0.485107ZM32.7023 22.5186C32.7023 23.1581 32.197 23.6783 31.576 23.6783H3.79525C3.17424 23.6783 2.66898 23.1581 2.66898 22.5186V3.96409C2.66898 3.32465 3.17424 2.80441 3.79525 2.80441H31.576C32.197 2.80441 32.7023 3.32465 32.7023 3.96409V22.5186Z" fill="#3A3A3A"/>
</svg>
