<svg width="60" height="17" viewBox="0 0 60 17" fill="none" xmlns="http://www.w3.org/2000/svg">
<g clip-path="url(#clip0_3053_384)">
<path d="M11.5877 14.7116C15.5581 14.7307 19.1823 11.5218 19.1823 7.61815C19.1823 3.34962 15.5581 0.399167 11.5877 0.400391H8.17084C4.15291 0.399167 0.845703 3.35032 0.845703 7.61815C0.845703 11.5227 4.15291 14.7307 8.17084 14.7116H11.5877Z" fill="#3A3A3A"/>
<path d="M9.69451 11.4182V3.66697C11.276 4.26465 12.3987 5.77309 12.4013 7.54235C12.3987 9.31195 11.276 10.8195 9.69451 11.4182ZM3.97285 7.54235C3.9764 5.77414 5.09731 4.26657 6.67791 3.66714V11.4167C5.09731 10.8178 3.9764 9.31108 3.97285 7.54235ZM8.18647 0.990967C4.51503 0.99219 1.53995 3.92411 1.53906 7.54235C1.53995 11.1602 4.51503 14.0916 8.18647 14.0927C11.8592 14.0916 14.8348 11.1602 14.8353 7.54235C14.8348 3.92411 11.8592 0.99219 8.18647 0.990967Z" fill="#EAEAEA"/>
<path d="M21.5103 3.4784C21.5103 2.80154 21.1517 2.84594 20.8083 2.83877V2.64316C21.106 2.65749 21.4113 2.65749 21.7097 2.65749C22.0303 2.65749 22.4658 2.64316 23.0315 2.64316C25.0095 2.64316 26.0864 3.9448 26.0864 5.27773C26.0864 6.02295 25.6437 7.89692 22.9394 7.89692C22.5501 7.89692 22.1905 7.88206 21.8318 7.88206C21.4883 7.88206 21.1517 7.88923 20.8083 7.89692V7.70113C21.2662 7.65585 21.4883 7.64082 21.5103 7.12897V3.4784ZM22.259 7.0087C22.259 7.5882 22.6796 7.65585 23.0536 7.65585C24.7039 7.65585 25.246 6.42903 25.246 5.30745C25.246 3.9004 24.3292 2.8844 22.8551 2.8844C22.5414 2.8844 22.3972 2.90642 22.259 2.91446V7.0087ZM26.3543 7.7013H26.4992C26.7128 7.7013 26.8658 7.7013 26.8658 7.45237V5.41303C26.8658 5.08212 26.7513 5.03614 26.4683 4.8865V4.76588C26.8274 4.65995 27.2555 4.51765 27.2857 4.4951C27.3395 4.46503 27.3851 4.45699 27.4234 4.45699C27.4612 4.45699 27.477 4.50227 27.477 4.56293V7.45237C27.477 7.7013 27.645 7.7013 27.8591 7.7013H27.9886V7.89709C27.7287 7.89709 27.4612 7.88206 27.1869 7.88206C26.9117 7.88206 26.6365 7.8894 26.3543 7.89709V7.7013ZM27.1716 3.29817C26.9726 3.29817 26.7973 3.11759 26.7973 2.92181C26.7973 2.73336 26.9809 2.55977 27.1716 2.55977C27.3696 2.55977 27.5458 2.7185 27.5458 2.92181C27.5458 3.12529 27.3774 3.29817 27.1716 3.29817ZM28.7144 5.45796C28.7144 5.17966 28.63 5.10467 28.2718 4.96167V4.81868C28.5998 4.71344 28.9128 4.6152 29.2799 4.45699C29.3026 4.45699 29.3249 4.47238 29.3249 4.53216V5.02163C29.761 4.71344 30.1355 4.45699 30.6479 4.45699C31.2967 4.45699 31.5258 4.92374 31.5258 5.51093V7.45237C31.5258 7.7013 31.6936 7.7013 31.9077 7.7013H32.0452V7.89709C31.7773 7.89709 31.51 7.88206 31.2357 7.88206C30.9603 7.88206 30.6852 7.8894 30.4103 7.89709V7.7013H30.5477C30.762 7.7013 30.914 7.7013 30.914 7.45237V5.50358C30.914 5.07407 30.6479 4.86378 30.2118 4.86378C29.9675 4.86378 29.5779 5.05922 29.3249 5.22494V7.45237C29.3249 7.7013 29.494 7.7013 29.708 7.7013H29.8453V7.89709C29.5779 7.89709 29.3102 7.88206 29.0352 7.88206C28.7606 7.88206 28.485 7.8894 28.2104 7.89709V7.7013H28.3482C28.562 7.7013 28.7144 7.7013 28.7144 7.45237V5.45796ZM32.6261 5.81982C32.6103 5.88764 32.6103 6.00022 32.6261 6.25632C32.671 6.97112 33.1383 7.55796 33.7484 7.55796C34.1693 7.55796 34.4982 7.3321 34.7801 7.05398L34.8869 7.15939C34.5354 7.61862 34.0999 8.00985 33.4741 8.00985C32.259 8.00985 32.0149 6.8505 32.0149 6.36907C32.0149 4.89367 33.0228 4.45699 33.5572 4.45699C34.1765 4.45699 34.8417 4.8407 34.8484 5.63854C34.8484 5.68434 34.8484 5.72892 34.8417 5.77454L34.7723 5.81982H32.6261ZM33.9784 5.57875C34.1692 5.57875 34.1914 5.48068 34.1914 5.39048C34.1914 5.00677 33.9549 4.69823 33.5268 4.69823C33.0611 4.69823 32.7403 5.03614 32.6488 5.57875H33.9784ZM35.0246 7.7013H35.2309C35.444 7.7013 35.5969 7.7013 35.5969 7.45237V5.33786C35.5969 5.10467 35.3146 5.05922 35.1999 4.99908V4.8865C35.7575 4.65296 36.0632 4.45699 36.1329 4.45699C36.1778 4.45699 36.2005 4.47954 36.2005 4.55524V5.23245H36.2168C36.407 4.93895 36.7285 4.45699 37.1942 4.45699C37.3853 4.45699 37.6294 4.58478 37.6294 4.85591C37.6294 5.05922 37.4846 5.24032 37.2708 5.24032C37.0331 5.24032 37.0331 5.05922 36.7661 5.05922C36.636 5.05922 36.2085 5.23245 36.2085 5.68434V7.45237C36.2085 7.7013 36.3609 7.7013 36.575 7.7013H37.0026V7.89709C36.5823 7.8894 36.2626 7.88206 35.9336 7.88206C35.6205 7.88206 35.2996 7.8894 35.0246 7.89709V7.7013ZM37.9654 6.8505C38.0649 7.34714 38.3703 7.76896 38.9282 7.76896C39.3782 7.76896 39.5462 7.498 39.5462 7.23473C39.5462 6.34635 37.8815 6.63216 37.8815 5.42072C37.8815 4.99891 38.2257 4.45699 39.0656 4.45699C39.3097 4.45699 39.6381 4.52499 39.9358 4.67568L39.9897 5.44275H39.8139C39.7376 4.96901 39.4704 4.69806 38.9813 4.69806C38.6754 4.69806 38.3855 4.87112 38.3855 5.19469C38.3855 6.07591 40.1577 5.80443 40.1577 6.98598C40.1577 7.48262 39.7529 8.01002 38.8436 8.01002C38.5381 8.01002 38.179 7.90443 37.912 7.7541L37.8277 6.88843L37.9654 6.8505ZM47.0555 4.00528H46.8649C46.7195 3.12529 46.0854 2.77112 45.2302 2.77112C44.3513 2.77112 43.0753 3.35044 43.0753 5.15676C43.0753 6.67796 44.1762 7.76896 45.3521 7.76896C46.1081 7.76896 46.7351 7.25729 46.888 6.46662L47.0633 6.51172L46.888 7.61058C46.5671 7.80689 45.7037 8.00985 45.1992 8.00985C43.4122 8.00985 42.2819 6.87323 42.2819 5.17966C42.2819 3.63661 43.6794 2.52988 45.1766 2.52988C45.7951 2.52988 46.3912 2.72619 46.9792 2.9295L47.0555 4.00528ZM47.331 7.7013H47.4754C47.6899 7.7013 47.8429 7.7013 47.8429 7.45237V3.26076C47.8429 2.77112 47.7282 2.75609 47.438 2.6734V2.55296C47.7433 2.45524 48.0643 2.31976 48.2246 2.22903C48.308 2.18428 48.3696 2.146 48.3921 2.146C48.4386 2.146 48.454 2.19162 48.454 2.25193V7.45237C48.454 7.7013 48.6219 7.7013 48.836 7.7013H48.965V7.89709C48.7062 7.89709 48.4386 7.88206 48.1636 7.88206C47.8888 7.88206 47.6138 7.8894 47.331 7.89709V7.7013ZM52.2357 7.48262C52.2357 7.61862 52.3194 7.62579 52.4491 7.62579C52.541 7.62579 52.6551 7.61862 52.7548 7.61862V7.777C52.4258 7.80689 51.7998 7.96492 51.6544 8.01002L51.6159 7.98729V7.3779C51.1584 7.74658 50.8064 8.01002 50.2635 8.01002C49.8514 8.01002 49.4236 7.74658 49.4236 7.11464V5.18735C49.4236 4.99156 49.3933 4.80329 48.9659 4.76588V4.62271C49.2412 4.61537 49.8514 4.57027 49.9511 4.57027C50.0357 4.57027 50.0357 4.62271 50.0357 4.78843V6.72988C50.0357 6.95609 50.0357 7.60324 50.6998 7.60324C50.9595 7.60324 51.3032 7.40762 51.6236 7.14471V5.11918C51.6236 4.96901 51.2572 4.8865 50.9828 4.81116V4.67568C51.6695 4.63023 52.098 4.57027 52.1739 4.57027C52.2357 4.57027 52.2357 4.62271 52.2357 4.70592V7.48262ZM53.7556 4.99908C54.0607 4.74316 54.4734 4.45699 54.8939 4.45699C55.7801 4.45699 56.3141 5.21777 56.3141 6.03781C56.3141 7.02374 55.5812 8.01002 54.4881 8.01002C53.9234 8.01002 53.6255 7.82909 53.4267 7.74658L53.1978 7.91929L53.0379 7.83678C53.1055 7.39276 53.1446 6.95609 53.1446 6.49703V3.26076C53.1446 2.77112 53.0294 2.75609 52.7393 2.6734V2.55296C53.0456 2.45524 53.3656 2.31976 53.5264 2.22903C53.6103 2.18428 53.671 2.146 53.6947 2.146C53.7405 2.146 53.7556 2.19162 53.7556 2.25193V4.99908ZM53.7556 7.04611C53.7556 7.3321 54.0304 7.81441 54.5422 7.81441C55.3598 7.81441 55.7033 7.02374 55.7033 6.35351C55.7033 5.54082 55.0775 4.86378 54.4814 4.86378C54.1981 4.86378 53.9617 5.04453 53.7556 5.21777V7.04611ZM20.7996 12.2731H20.8581C21.0075 12.2731 21.1654 12.2532 21.1654 12.0399V9.89448C21.1654 9.68086 21.0075 9.66058 20.8581 9.66058H20.7996V9.53769C20.9617 9.53769 21.2112 9.55377 21.4154 9.55377C21.6229 9.55377 21.872 9.53769 22.0674 9.53769V9.66058H22.009C21.86 9.66058 21.7017 9.68086 21.7017 9.89448V12.0399C21.7017 12.2532 21.86 12.2731 22.009 12.2731H22.0674V12.3965C21.868 12.3965 21.618 12.3805 21.4109 12.3805C21.2071 12.3805 20.9617 12.3965 20.7996 12.3965V12.2731ZM24.9231 11.5893L24.9314 11.5812V10.0457C24.9314 9.7097 24.6942 9.66058 24.5696 9.66058H24.4781V9.53769C24.6736 9.53769 24.8649 9.55395 25.06 9.55395C25.2303 9.55395 25.4014 9.53769 25.5713 9.53769V9.66058H25.5094C25.3343 9.66058 25.139 9.69345 25.139 10.1806V12.0445C25.139 12.1876 25.1432 12.3308 25.1636 12.4577H25.0057L22.8654 10.1067V11.7943C22.8654 12.1506 22.9355 12.2731 23.2559 12.2731H23.3263V12.3965C23.1478 12.3965 22.9694 12.3805 22.7903 12.3805C22.6039 12.3805 22.4124 12.3965 22.2253 12.3965V12.2731H22.2835C22.5702 12.2731 22.6573 12.081 22.6573 11.7538V10.0287C22.6573 9.79973 22.4657 9.66058 22.2794 9.66058H22.2253V9.53769C22.383 9.53769 22.5452 9.55395 22.7027 9.55395C22.8276 9.55395 22.9484 9.53769 23.073 9.53769L24.9231 11.5893ZM26.1939 9.74239C25.8816 9.74239 25.8699 9.81616 25.8075 10.1147H25.6829C25.6991 10.0002 25.7202 9.88574 25.7328 9.76669C25.7496 9.65184 25.7576 9.53769 25.7576 9.41899H25.8573C25.8909 9.54206 25.9946 9.53769 26.1075 9.53769H28.2516C28.364 9.53769 28.4676 9.53367 28.4763 9.4106L28.5755 9.42703C28.5594 9.53769 28.5425 9.648 28.5299 9.75883C28.5223 9.86948 28.5223 9.98014 28.5223 10.0904L28.3974 10.1359C28.3889 9.98451 28.3679 9.74239 28.0897 9.74239H27.4081V11.9212C27.4081 12.2371 27.5538 12.2731 27.7528 12.2731H27.8318V12.3965C27.6698 12.3965 27.3787 12.3805 27.1546 12.3805C26.9051 12.3805 26.614 12.3965 26.4517 12.3965V12.2731H26.5306C26.76 12.2731 26.8757 12.253 26.8757 11.9298V9.74239H26.1939ZM28.7084 12.2731H28.7668C28.9163 12.2731 29.0744 12.2532 29.0744 12.0399V9.89448C29.0744 9.68086 28.9163 9.66058 28.7668 9.66058H28.7084V9.53769C28.9614 9.53769 29.3946 9.55377 29.7431 9.55377C30.0928 9.55377 30.5244 9.53769 30.8069 9.53769C30.7998 9.71355 30.8039 9.98433 30.8159 10.1644L30.6907 10.1973C30.6706 9.93119 30.6209 9.71827 30.1841 9.71827H29.607V10.7909H30.1009C30.3502 10.7909 30.4047 10.6521 30.4293 10.4304H30.5537C30.5455 10.5906 30.5413 10.7502 30.5413 10.9096C30.5413 11.0657 30.5455 11.2211 30.5537 11.3767L30.4293 11.401C30.4047 11.1556 30.3921 10.9958 30.1048 10.9958H29.607V11.9499C29.607 12.2161 29.847 12.2161 30.1132 12.2161C30.6122 12.2161 30.8322 12.1831 30.9571 11.7169L31.0733 11.745C31.0191 11.9627 30.9694 12.1791 30.9325 12.3965C30.666 12.3965 30.188 12.3805 29.8144 12.3805C29.4399 12.3805 28.9452 12.3965 28.7084 12.3965V12.2731ZM31.6343 9.97157C31.6343 9.67282 31.4681 9.66058 31.3389 9.66058H31.2641V9.53752C31.3971 9.53752 31.6547 9.55395 31.9084 9.55395C32.1575 9.55395 32.3573 9.53752 32.5775 9.53752C33.1009 9.53752 33.5669 9.67666 33.5669 10.2588C33.5669 10.6268 33.3177 10.8521 32.9893 10.9797L33.6998 12.0273C33.8164 12.2006 33.899 12.2492 34.1031 12.273V12.3965C33.9658 12.3965 33.8327 12.3805 33.6957 12.3805C33.5669 12.3805 33.4335 12.3965 33.3052 12.3965C32.9852 11.9829 32.7102 11.5407 32.4403 11.069H32.1666V11.9459C32.1666 12.2616 32.3158 12.273 32.5067 12.273H32.5817V12.3965C32.3444 12.3965 32.1041 12.3805 31.8669 12.3805C31.6672 12.3805 31.4718 12.3965 31.2641 12.3965V12.273H31.3389C31.4933 12.273 31.6343 12.2043 31.6343 12.0525V9.97157ZM32.1666 10.9215H32.3695C32.7856 10.9215 33.0095 10.7663 33.0095 10.2827C33.0095 9.91878 32.7728 9.68523 32.4025 9.68523C32.2776 9.68523 32.2244 9.69782 32.1666 9.70149V10.9215ZM36.925 11.5893L36.9325 11.5812V10.0457C36.9325 9.7097 36.696 9.66058 36.5715 9.66058H36.4803V9.53769C36.6756 9.53769 36.8661 9.55395 37.062 9.55395C37.2327 9.55395 37.4023 9.53769 37.574 9.53769V9.66058H37.5112C37.3368 9.66058 37.1413 9.69345 37.1413 10.1806V12.0445C37.1413 12.1876 37.1452 12.3308 37.1658 12.4577H37.0083L34.8677 10.1067V11.7943C34.8677 12.1506 34.9382 12.2731 35.2582 12.2731H35.3288V12.3965C35.1504 12.3965 34.9715 12.3805 34.793 12.3805C34.6053 12.3805 34.4143 12.3965 34.2274 12.3965V12.2731H34.2851C34.5723 12.2731 34.6596 12.081 34.6596 11.7538V10.0287C34.6596 9.79973 34.4684 9.66058 34.2816 9.66058H34.2274V9.53769C34.3848 9.53769 34.5477 9.55395 34.7056 9.55395C34.8292 9.55395 34.9502 9.53769 35.0753 9.53769L36.925 11.5893ZM38.2424 11.8109C38.2001 11.9499 38.1501 12.0571 38.1501 12.1301C38.1501 12.2532 38.3249 12.2731 38.4616 12.2731H38.5081V12.3965C38.3415 12.3876 38.1717 12.3806 38.0043 12.3806C37.8549 12.3806 37.7062 12.3876 37.5559 12.3965V12.2731H37.5811C37.7431 12.2731 37.8806 12.1791 37.942 12.0067L38.6078 10.1277C38.6612 9.97612 38.7368 9.77124 38.7618 9.61915C38.8942 9.57475 39.0608 9.49294 39.1397 9.44364C39.1525 9.43927 39.1598 9.43508 39.1729 9.43508C39.1853 9.43508 39.1929 9.43508 39.2024 9.44766C39.2148 9.48035 39.2265 9.51724 39.24 9.54993L40.0046 11.6921C40.0543 11.8352 40.1038 11.9866 40.1576 12.11C40.2079 12.2247 40.2952 12.2731 40.4326 12.2731H40.4574V12.3965C40.2704 12.3876 40.083 12.3806 39.884 12.3806C39.6805 12.3806 39.472 12.3876 39.26 12.3965V12.2731H39.3061C39.4012 12.2731 39.5639 12.2572 39.5639 12.1546C39.5639 12.1016 39.5265 11.9912 39.48 11.8597L39.3184 11.3847H38.3749L38.2424 11.8109ZM38.8489 9.99639H38.8404L38.4538 11.1556H39.2306L38.8489 9.99639ZM40.6403 9.74239C40.3284 9.74239 40.316 9.81616 40.2535 10.1147H40.1286C40.145 10.0002 40.1661 9.88574 40.179 9.76669C40.1955 9.65184 40.2033 9.53769 40.2033 9.41899H40.3036C40.3366 9.54206 40.4409 9.53769 40.5527 9.53769H42.6978C42.8096 9.53769 42.9134 9.53367 42.9219 9.4106L43.0214 9.42703C43.0054 9.53769 42.9888 9.648 42.9763 9.75883C42.9671 9.86948 42.9671 9.98014 42.9671 10.0904L42.8427 10.1359C42.8351 9.98451 42.8142 9.74239 42.5356 9.74239H41.8538V11.9212C41.8538 12.2371 41.9997 12.2731 42.1987 12.2731H42.2779V12.3965C42.1157 12.3965 41.8249 12.3805 41.6003 12.3805C41.3514 12.3805 41.0597 12.3965 40.8977 12.3965V12.2731H40.9767C41.2057 12.2731 41.3219 12.253 41.3219 11.9298V9.74239H40.6403ZM43.1747 12.2731H43.2329C43.383 12.2731 43.5402 12.2532 43.5402 12.0399V9.89448C43.5402 9.68086 43.383 9.66058 43.2329 9.66058H43.1747V9.53769C43.3372 9.53769 43.5861 9.55377 43.7894 9.55377C43.9979 9.55377 44.2472 9.53769 44.4429 9.53769V9.66058H44.3847C44.2347 9.66058 44.0765 9.68086 44.0765 9.89448V12.0399C44.0765 12.2532 44.2347 12.2731 44.3847 12.2731H44.4429V12.3965C44.2431 12.3965 43.9936 12.3805 43.7861 12.3805C43.582 12.3805 43.3372 12.3965 43.1747 12.3965V12.2731ZM46.1005 9.47651C46.9866 9.47651 47.6928 10.0174 47.6928 10.8897C47.6928 11.8317 47.0069 12.4579 46.1219 12.4579C45.24 12.4579 44.567 11.8683 44.567 10.9877C44.567 10.1361 45.2361 9.47651 46.1005 9.47651ZM46.1633 12.2777C46.9698 12.2777 47.1101 11.5769 47.1101 10.9799C47.1101 10.381 46.7828 9.65639 46.0925 9.65639C45.3649 9.65639 45.149 10.2955 45.149 10.8437C45.149 11.5769 45.4898 12.2777 46.1633 12.2777ZM50.4936 11.5893L50.5021 11.5812V10.0457C50.5021 9.7097 50.2646 9.66058 50.1398 9.66058H50.0497V9.53769C50.2444 9.53769 50.4358 9.55395 50.6304 9.55395C50.8016 9.55395 50.9719 9.53769 51.1426 9.53769V9.66058H51.0798C50.9056 9.66058 50.7099 9.69345 50.7099 10.1806V12.0445C50.7099 12.1876 50.7138 12.3308 50.7349 12.4577H50.5772L48.4361 10.1067V11.7943C48.4361 12.1506 48.5069 12.2731 48.8266 12.2731H48.8976V12.3965C48.7188 12.3965 48.5404 12.3805 48.3616 12.3805C48.1746 12.3805 47.9828 12.3965 47.7957 12.3965V12.2731H47.8544C48.1416 12.2731 48.228 12.081 48.228 11.7538V10.0287C48.228 9.79973 48.0378 9.66058 47.8499 9.66058H47.7957V9.53769C47.9539 9.53769 48.1161 9.55395 48.2738 9.55395C48.3983 9.55395 48.5186 9.53769 48.6437 9.53769L50.4936 11.5893ZM51.8104 11.8109C51.7696 11.9499 51.7192 12.0571 51.7192 12.1301C51.7192 12.2532 51.8943 12.2731 52.0306 12.2731H52.0771V12.3965C51.9106 12.3876 51.74 12.3806 51.5737 12.3806C51.4236 12.3806 51.2746 12.3876 51.1256 12.3965V12.2731H51.1492C51.3119 12.2731 51.4495 12.1791 51.5109 12.0067L52.1769 10.1277C52.2307 9.97612 52.3059 9.77124 52.33 9.61915C52.4633 9.57475 52.6293 9.49294 52.709 9.44364C52.7209 9.43927 52.7292 9.43508 52.7418 9.43508C52.7542 9.43508 52.7622 9.43508 52.7706 9.44766C52.7832 9.48035 52.7959 9.51724 52.8085 9.54993L53.5728 11.6921C53.6227 11.8352 53.6724 11.9866 53.727 12.11C53.7769 12.2247 53.8645 12.2731 54.0013 12.2731H54.0267V12.3965C53.8393 12.3876 53.6522 12.3806 53.4524 12.3806C53.2492 12.3806 53.041 12.3876 52.8289 12.3965V12.2731H52.8749C52.9698 12.2731 53.133 12.2572 53.133 12.1546C53.133 12.1016 53.0952 11.9912 53.0489 11.8597L52.8875 11.3847H51.9438L51.8104 11.8109ZM52.4179 9.99639H52.4095L52.0224 11.1556H52.8004L52.4179 9.99639ZM55.074 11.995C55.074 12.1592 55.1895 12.2079 55.3225 12.2247C55.493 12.2371 55.68 12.2371 55.8718 12.2163C56.046 12.1957 56.1956 12.0976 56.2703 11.995C56.3366 11.9048 56.3739 11.7903 56.3993 11.7001H56.5197C56.4741 11.9335 56.4158 12.1633 56.3655 12.3965C56.0008 12.3965 55.6337 12.3806 55.2689 12.3806C54.9026 12.3806 54.5373 12.3965 54.1714 12.3965V12.2731H54.2288C54.379 12.2731 54.5415 12.2532 54.5415 11.999V9.8943C54.5415 9.68086 54.379 9.66058 54.2288 9.66058H54.1714V9.53769C54.3913 9.53769 54.6077 9.55395 54.8277 9.55395C55.0404 9.55395 55.2478 9.53769 55.46 9.53769V9.66058H55.3555C55.198 9.66058 55.074 9.66513 55.074 9.88172V11.995Z" fill="#3A3A3A"/>
</g>
<defs>
<clipPath id="clip0_3053_384">
<rect width="58.6294" height="15.6959" fill="white" transform="translate(0.771484 0.314209)"/>
</clipPath>
</defs>
</svg>
