<svg width="53" height="20" viewBox="0 0 53 20" fill="none" xmlns="http://www.w3.org/2000/svg">
<path d="M7.79693 4.51598C8.55057 4.25695 9.34902 4.16556 10.1395 4.24783C10.93 4.3301 11.6946 4.58414 12.3826 4.99322C13.0707 5.4023 13.6666 5.9571 14.131 6.62091C14.5954 7.28471 14.9176 8.0424 15.0765 8.84397L18.9255 8.03594C18.6547 6.67394 18.1064 5.38655 17.3169 4.25875C16.5274 3.13095 15.5145 2.18836 14.3453 1.49317C13.176 0.797979 11.8768 0.365989 10.5335 0.225718C9.19021 0.085447 7.83326 0.24006 6.55225 0.679388L7.79693 4.51598Z" fill="#3A3A3A"/>
<path d="M3.25532 17.3549L5.85699 14.3264C5.26217 13.7839 4.78595 13.1176 4.4598 12.3715C4.13365 11.6254 3.96499 10.8165 3.96499 9.99835C3.96499 9.18018 4.13365 8.37132 4.4598 7.62523C4.78595 6.87915 5.26217 6.21287 5.85699 5.67037L3.25397 2.64185C2.24218 3.56348 1.43205 4.69589 0.877187 5.9641C0.322325 7.23232 0.0354004 8.60739 0.0354004 9.99835C0.0354004 11.3893 0.322325 12.7644 0.877187 14.0326C1.43205 15.3009 2.24218 16.4332 3.25397 17.3549H3.25532Z" fill="#3A3A3A"/>
<path d="M15.0753 11.158C14.9156 11.9591 14.5927 12.7162 14.1279 13.3793C13.6631 14.0424 13.067 14.5965 12.3788 15.0049C11.6907 15.4133 10.9263 15.6667 10.136 15.7485C9.34575 15.8302 8.54763 15.7384 7.79437 15.4791L6.54834 19.3143C7.8287 19.7539 9.18503 19.9091 10.5279 19.7696C11.8707 19.6301 13.1696 19.1991 14.3389 18.5051C15.5082 17.811 16.5213 16.8696 17.3115 15.7429C18.1016 14.6163 18.6509 13.3299 18.923 11.9688L15.0753 11.158Z" fill="#3A3A3A"/>
<path d="M31.7374 13.8669C31.1889 14.4246 30.4728 14.774 29.7063 14.858C28.9398 14.9421 28.1683 14.7557 27.518 14.3295L26.2439 16.4191C27.3498 17.1372 28.6585 17.4503 29.9586 17.308C31.2587 17.1656 32.4741 16.576 33.4086 15.6345L31.7374 13.8669Z" fill="#3A3A3A"/>
<path d="M29.4272 5.35417C28.3715 5.33806 27.3314 5.61786 26.4182 6.16359C25.505 6.70932 24.7532 7.50044 24.2431 8.45231C23.733 9.40418 23.4839 10.4809 23.5224 11.5674C23.561 12.6538 23.8857 13.709 24.4618 14.6201L35.0062 9.97955C34.7097 8.67878 33.9997 7.51722 32.989 6.67926C31.9782 5.84131 30.7247 5.37495 29.4272 5.35417ZM25.9324 11.7195C25.9164 11.5784 25.9097 11.4363 25.9124 11.2942C25.9232 10.5758 26.1467 9.87786 26.5531 9.29378C26.9594 8.7097 27.5293 8.26731 28.1865 8.02574C28.8437 7.78417 29.5568 7.75493 30.2306 7.94197C30.9043 8.129 31.5065 8.5234 31.9567 9.07238L25.9324 11.7195Z" fill="#3A3A3A"/>
<path d="M38.3139 2.65192V14.2263L40.2645 15.0523L39.342 17.3346L37.4128 16.5087C37.025 16.3339 36.6948 16.047 36.4623 15.6827C36.2043 15.252 36.0746 14.7528 36.0893 14.2469V2.64087L38.3139 2.65192Z" fill="#3A3A3A"/>
<path d="M45.3448 7.99942C45.8048 7.84175 46.292 7.78629 46.7743 7.83671C47.2566 7.88713 47.723 8.04226 48.1428 8.29189C48.5627 8.54152 48.9263 8.87995 49.2098 9.28489C49.4933 9.68983 49.6901 10.152 49.7874 10.6411L52.1364 10.1482C51.9712 9.31696 51.6367 8.53119 51.155 7.8428C50.6732 7.15441 50.0551 6.57906 49.3415 6.1547C48.628 5.73034 47.8351 5.46665 47.0153 5.381C46.1954 5.29534 45.3673 5.38968 44.5854 5.6578L45.3448 7.99942Z" fill="#3A3A3A"/>
<path d="M42.5733 15.8374L44.1602 13.9886C43.7971 13.6575 43.5063 13.2508 43.3072 12.7954C43.108 12.34 43.005 11.8463 43.005 11.3469C43.005 10.8475 43.108 10.3537 43.3072 9.89833C43.5063 9.44293 43.7971 9.03629 44.1602 8.70523L42.5719 6.85645C41.9545 7.41898 41.4602 8.11012 41.1216 8.88411C40.783 9.65811 40.6079 10.4973 40.6079 11.3462C40.6079 12.1951 40.783 13.0343 41.1216 13.8083C41.4602 14.5823 41.9545 15.2734 42.5719 15.836L42.5733 15.8374Z" fill="#3A3A3A"/>
<path d="M49.7872 12.0557C49.6897 12.5446 49.4926 13.0067 49.2088 13.4114C48.9251 13.8161 48.5613 14.1542 48.1413 14.4034C47.7213 14.6527 47.2548 14.8074 46.7725 14.8574C46.2901 14.9073 45.803 14.8514 45.3432 14.6932L44.5825 17.0334C45.3641 17.3018 46.192 17.3966 47.0117 17.3115C47.8314 17.2264 48.6242 16.9633 49.338 16.5397C50.0518 16.116 50.6702 15.5414 51.1525 14.8537C51.6349 14.1659 51.9701 13.3808 52.1362 12.5499L49.7872 12.0557Z" fill="#3A3A3A"/>
</svg>
