<svg width="46" height="39" viewBox="0 0 46 39" fill="none" xmlns="http://www.w3.org/2000/svg">
<path d="M11.9216 33.6228V31.7476C11.9322 31.5899 11.9101 31.4316 11.8566 31.2834C11.8032 31.1352 11.7197 31.0005 11.6117 30.8881C11.5037 30.7757 11.3737 30.6883 11.2304 30.6317C11.087 30.5752 10.9336 30.5507 10.7803 30.5599C10.5797 30.5464 10.3792 30.5886 10.1998 30.682C10.0204 30.7755 9.8687 30.9168 9.76046 31.0913C9.66179 30.922 9.52061 30.7834 9.3518 30.6899C9.18299 30.5963 8.99281 30.5515 8.8013 30.5599C8.63436 30.5513 8.46812 30.5876 8.31904 30.6655C8.16997 30.7433 8.04324 30.8599 7.95141 31.0037V30.635H7.32007V33.6228H7.95748V31.9789C7.94393 31.8767 7.95246 31.7727 7.98247 31.6743C8.01248 31.5759 8.06322 31.4856 8.13108 31.4097C8.19894 31.3339 8.28223 31.2744 8.37501 31.2356C8.46778 31.1967 8.56774 31.1795 8.66775 31.185C9.08662 31.185 9.29909 31.4663 9.29909 31.9726V33.6353H9.93651V31.9789C9.9235 31.8768 9.93242 31.773 9.96264 31.6749C9.99285 31.5767 10.0436 31.4866 10.1114 31.4109C10.1791 31.3352 10.2622 31.2757 10.3547 31.2367C10.4472 31.1977 10.5469 31.18 10.6468 31.185C11.0778 31.185 11.2842 31.4663 11.2842 31.9726V33.6353L11.9216 33.6228ZM21.3523 30.635H20.3142V29.7286H19.6768V30.635H19.1001V31.2288H19.689V32.6039C19.689 33.2978 19.95 33.7103 20.6967 33.7103C20.9757 33.7113 21.2492 33.6311 21.4859 33.479L21.3038 32.9227C21.1344 33.0267 20.9423 33.0848 20.7453 33.0915C20.4417 33.0915 20.3264 32.8915 20.3264 32.5914V31.2288H21.3584L21.3523 30.635ZM26.737 30.5599C26.583 30.5553 26.4307 30.5935 26.2961 30.6705C26.1615 30.7475 26.0495 30.8605 25.9721 30.9975V30.635H25.3468V33.6228H25.9781V31.9476C25.9781 31.4538 26.1845 31.1788 26.5852 31.1788C26.7202 31.1769 26.8543 31.2023 26.9798 31.2538L27.174 30.6287C27.0299 30.5756 26.878 30.5481 26.7248 30.5474L26.737 30.5599ZM18.5963 30.8725C18.2389 30.6537 17.828 30.5452 17.4125 30.5599C16.6779 30.5599 16.1984 30.9225 16.1984 31.5163C16.1984 32.0039 16.5505 32.3039 17.2 32.3977L17.5035 32.4414C17.8496 32.4914 18.0135 32.5852 18.0135 32.7539C18.0135 32.9852 17.7828 33.1165 17.3518 33.1165C17.0051 33.1268 16.6651 33.0167 16.3865 32.8039L16.083 33.3103C16.4508 33.5747 16.8913 33.7105 17.3396 33.6978C18.1774 33.6978 18.663 33.2915 18.663 32.7227C18.663 32.1539 18.2806 31.9226 17.6492 31.8288L17.3457 31.7851C17.0725 31.7476 16.854 31.6913 16.854 31.4913C16.854 31.2913 17.0604 31.1413 17.4064 31.1413C17.7262 31.1451 18.0398 31.2333 18.317 31.3975L18.5963 30.8725ZM35.506 30.5599C35.352 30.5553 35.1997 30.5935 35.0651 30.6705C34.9305 30.7475 34.8186 30.8605 34.7411 30.9975V30.635H34.1158V33.6228H34.7472V31.9476C34.7472 31.4538 34.9536 31.1788 35.3542 31.1788C35.4892 31.1769 35.6233 31.2023 35.7488 31.2538L35.9431 30.6287C35.7989 30.5756 35.647 30.5481 35.4938 30.5474L35.506 30.5599ZM27.3713 32.1226C27.3638 32.3326 27.399 32.5419 27.4745 32.737C27.5501 32.9322 27.6643 33.109 27.8101 33.2561C27.9558 33.4032 28.1297 33.5173 28.3207 33.5912C28.5117 33.6652 28.7156 33.6972 28.9193 33.6853C29.2984 33.7052 29.671 33.578 29.9635 33.329L29.66 32.8039C29.4417 32.9753 29.1756 33.0696 28.9011 33.0727C28.6678 33.0533 28.4501 32.9441 28.2913 32.7669C28.1326 32.5897 28.0444 32.3574 28.0444 32.1164C28.0444 31.8753 28.1326 31.6431 28.2913 31.4658C28.4501 31.2886 28.6678 31.1795 28.9011 31.16C29.1756 31.1632 29.4417 31.2574 29.66 31.4288L29.9635 30.9037C29.671 30.6547 29.2984 30.5276 28.9193 30.5474C28.7156 30.5356 28.5117 30.5676 28.3207 30.6415C28.1297 30.7154 27.9558 30.8296 27.8101 30.9766C27.6643 31.1237 27.5501 31.3005 27.4745 31.4957C27.399 31.6909 27.3638 31.9002 27.3713 32.1101V32.1226ZM33.2841 32.1226V30.635H32.6528V30.9975C32.5456 30.8554 32.4071 30.7417 32.2488 30.6656C32.0904 30.5895 31.9168 30.5533 31.7422 30.5599C31.3397 30.5599 30.9537 30.7246 30.669 31.0176C30.3844 31.3107 30.2245 31.7082 30.2245 32.1226C30.2245 32.5371 30.3844 32.9345 30.669 33.2276C30.9537 33.5207 31.3397 33.6853 31.7422 33.6853C31.9168 33.6919 32.0904 33.6557 32.2488 33.5796C32.4071 33.5036 32.5456 33.3898 32.6528 33.2477V33.6103H33.2841V32.1226ZM30.9348 32.1226C30.9449 31.9467 31.0047 31.7777 31.1068 31.6364C31.209 31.4951 31.3491 31.3876 31.5098 31.3272C31.6706 31.2669 31.8449 31.2562 32.0115 31.2966C32.178 31.3369 32.3295 31.4266 32.4472 31.5545C32.5649 31.6823 32.6437 31.8429 32.6739 32.0163C32.7041 32.1897 32.6844 32.3684 32.6172 32.5304C32.5501 32.6925 32.4383 32.8307 32.2958 32.9282C32.1532 33.0256 31.9861 33.0781 31.815 33.079C31.6949 33.0805 31.5757 33.0565 31.4649 33.0083C31.3542 32.9601 31.2544 32.8889 31.1717 32.7991C31.089 32.7093 31.0253 32.6028 30.9845 32.4864C30.9438 32.37 30.9268 32.2461 30.9348 32.1226ZM23.3162 30.5599C22.9137 30.5657 22.5299 30.7359 22.2492 31.0331C21.9686 31.3303 21.8141 31.73 21.8198 32.1445C21.8254 32.5589 21.9907 32.9541 22.2793 33.2431C22.5679 33.532 22.9562 33.6911 23.3587 33.6853C23.7954 33.7084 24.2248 33.5636 24.5637 33.279L24.2601 32.7977C24.0205 32.9956 23.7235 33.1056 23.4163 33.1102C23.2076 33.1287 23.0002 33.0626 22.8381 32.9261C22.6759 32.7895 22.572 32.5932 22.5482 32.3789H24.7033C24.7033 32.2976 24.7033 32.2164 24.7033 32.1289C24.7033 31.1913 24.1387 30.5662 23.3253 30.5662L23.3162 30.5599ZM23.3162 31.1413C23.4106 31.1392 23.5046 31.1563 23.5926 31.1916C23.6807 31.2269 23.7611 31.2798 23.8293 31.3471C23.8975 31.4144 23.9522 31.495 23.9902 31.584C24.0282 31.6731 24.0487 31.7691 24.0507 31.8663H22.5331C22.544 31.6657 22.6309 31.4775 22.775 31.342C22.9191 31.2065 23.109 31.1344 23.304 31.1413H23.3162ZM39.1332 32.1289V29.4348H38.5261V30.9975C38.4189 30.8554 38.2804 30.7417 38.1221 30.6656C37.9638 30.5895 37.7901 30.5533 37.6155 30.5599C37.213 30.5599 36.827 30.7246 36.5424 31.0176C36.2578 31.3107 36.0979 31.7082 36.0979 32.1226C36.0979 32.5371 36.2578 32.9345 36.5424 33.2276C36.827 33.5207 37.213 33.6853 37.6155 33.6853C37.7901 33.6919 37.9638 33.6557 38.1221 33.5796C38.2804 33.5036 38.4189 33.3898 38.5261 33.2477V33.6103H39.1332V32.1289ZM40.1864 33.1884C40.2259 33.1879 40.2651 33.1953 40.3018 33.2102C40.3366 33.2249 40.3685 33.2461 40.3959 33.2728C40.4225 33.2997 40.4441 33.3315 40.4596 33.3665C40.475 33.403 40.4829 33.4424 40.4829 33.4822C40.4829 33.5219 40.475 33.5613 40.4596 33.5978C40.4441 33.6328 40.4225 33.6646 40.3959 33.6916C40.3685 33.7182 40.3366 33.7394 40.3018 33.7541C40.2654 33.7706 40.2261 33.7791 40.1864 33.7791C40.1289 33.7786 40.0727 33.7613 40.0243 33.7292C39.9759 33.6971 39.9374 33.6516 39.9133 33.5978C39.8981 33.5612 39.8902 33.5219 39.8902 33.4822C39.8902 33.4424 39.8981 33.4031 39.9133 33.3665C39.9287 33.3315 39.9503 33.2997 39.977 33.2728C40.0043 33.2461 40.0362 33.2249 40.0711 33.2102C40.1106 33.1941 40.153 33.1866 40.1955 33.1884H40.1864ZM40.1864 33.7166C40.2167 33.7167 40.2467 33.7104 40.2745 33.6978C40.3006 33.6858 40.3243 33.6688 40.3443 33.6478C40.3822 33.6051 40.4033 33.5494 40.4033 33.4915C40.4033 33.4337 40.3822 33.3779 40.3443 33.3353C40.3243 33.3142 40.3006 33.2972 40.2745 33.2853C40.2467 33.2728 40.2167 33.2664 40.1864 33.2665C40.1562 33.2667 40.1262 33.273 40.0984 33.2853C40.0711 33.2968 40.0464 33.3138 40.0256 33.3353C39.9876 33.3779 39.9665 33.4337 39.9665 33.4915C39.9665 33.5494 39.9876 33.6051 40.0256 33.6478C40.0464 33.6692 40.0712 33.6862 40.0984 33.6978C40.129 33.7114 40.1622 33.7178 40.1955 33.7166H40.1864ZM40.2046 33.3446C40.233 33.3432 40.2609 33.3521 40.2836 33.3696C40.2928 33.3776 40.3002 33.3876 40.3049 33.3991C40.3097 33.4105 40.3117 33.4229 40.3109 33.4353C40.3113 33.4457 40.3097 33.456 40.306 33.4657C40.3023 33.4754 40.2968 33.4842 40.2896 33.4915C40.272 33.508 40.2496 33.5179 40.2259 33.5197L40.3139 33.6228H40.2441L40.1621 33.5197H40.1348V33.6228H40.0772V33.3478L40.2046 33.3446ZM40.1379 33.3978V33.4728H40.2046C40.2165 33.4764 40.2292 33.4764 40.2411 33.4728C40.2432 33.4684 40.2443 33.4636 40.2443 33.4587C40.2443 33.4538 40.2432 33.449 40.2411 33.4446C40.2432 33.4403 40.2443 33.4355 40.2443 33.4306C40.2443 33.4257 40.2432 33.4209 40.2411 33.4165C40.2292 33.4129 40.2165 33.4129 40.2046 33.4165L40.1379 33.3978ZM36.799 32.1289C36.8091 31.953 36.8689 31.784 36.9711 31.6427C37.0732 31.5014 37.2133 31.3939 37.374 31.3335C37.5348 31.2731 37.7092 31.2625 37.8757 31.3028C38.0423 31.3432 38.1937 31.4328 38.3114 31.5607C38.4291 31.6886 38.5079 31.8491 38.5381 32.0225C38.5683 32.1959 38.5486 32.3746 38.4815 32.5367C38.4143 32.6987 38.3025 32.837 38.16 32.9344C38.0175 33.0319 37.8504 33.0843 37.6793 33.0852C37.5591 33.0868 37.4399 33.0627 37.3292 33.0146C37.2185 32.9664 37.1186 32.8952 37.0359 32.8053C36.9533 32.7155 36.8895 32.609 36.8488 32.4926C36.808 32.3762 36.7911 32.2524 36.799 32.1289ZM15.482 32.1289V30.635H14.8507V30.9975C14.7435 30.8554 14.605 30.7417 14.4466 30.6656C14.2883 30.5895 14.1147 30.5533 13.9401 30.5599C13.5376 30.5599 13.1516 30.7246 12.8669 31.0176C12.5823 31.3107 12.4224 31.7082 12.4224 32.1226C12.4224 32.5371 12.5823 32.9345 12.8669 33.2276C13.1516 33.5207 13.5376 33.6853 13.9401 33.6853C14.1147 33.6919 14.2883 33.6557 14.4466 33.5796C14.605 33.5036 14.7435 33.3898 14.8507 33.2477V33.6103H15.482V32.1289ZM13.1327 32.1289C13.1428 31.953 13.2026 31.784 13.3047 31.6427C13.4069 31.5014 13.547 31.3939 13.7077 31.3335C13.8685 31.2731 14.0428 31.2625 14.2094 31.3028C14.3759 31.3432 14.5274 31.4328 14.6451 31.5607C14.7628 31.6886 14.8416 31.8491 14.8718 32.0225C14.902 32.1959 14.8823 32.3746 14.8151 32.5367C14.7479 32.6987 14.6362 32.837 14.4937 32.9344C14.3511 33.0319 14.184 33.0843 14.0129 33.0852C13.8922 33.0877 13.7724 33.0643 13.6609 33.0165C13.5495 32.9687 13.4489 32.8976 13.3656 32.8077C13.2823 32.7177 13.218 32.611 13.1769 32.4941C13.1357 32.3773 13.1186 32.2529 13.1266 32.1289H13.1327Z" fill="#3A3A3A"/>
<path d="M18.4367 25.5079V7.91523H27.8979V25.5079H18.4367Z" fill="#3A3A3A" stroke="#EAEAEA" stroke-width="0.1"/>
<path d="M18.8938 16.7148C18.892 14.9959 19.2701 13.2991 19.9995 11.7528C20.7111 10.2443 21.7388 8.91747 23.0083 7.86773C21.4305 6.62018 19.5489 5.84408 17.5699 5.6255C15.5506 5.40246 13.511 5.76886 11.684 6.68302C9.8571 7.59719 8.31637 9.02237 7.23827 10.7961C6.16015 12.5698 5.58828 14.6203 5.58828 16.7132C5.58828 18.8061 6.16015 20.8566 7.23827 22.6303C8.31637 24.404 9.8571 25.8292 11.684 26.7434C13.511 27.6575 15.5506 28.0239 17.5699 27.8009C19.5489 27.5823 21.4305 26.8062 23.0083 25.5587C21.7392 24.5093 20.7117 23.1829 20.0002 21.6751C19.2708 20.1293 18.8925 18.4331 18.8938 16.7148ZM18.8938 16.7148C18.8938 16.7147 18.8938 16.7147 18.8938 16.7147L18.9938 16.7148L18.8938 16.7149C18.8938 16.7148 18.8938 16.7148 18.8938 16.7148ZM23.1674 25.5595C23.1409 25.5381 23.1145 25.5166 23.0882 25.4949L23.0875 25.6235C23.1142 25.6023 23.1408 25.581 23.1674 25.5595Z" fill="#3A3A3A" stroke="#EAEAEA" stroke-width="0.2"/>
<path d="M40.7483 16.7131C40.7482 18.8062 40.1762 20.8568 39.0979 22.6306C38.0196 24.4044 36.4786 25.8295 34.6515 26.7436C32.8243 27.6576 30.7845 28.0237 28.765 27.8004C26.7859 27.5815 24.9042 26.805 23.3264 25.557C24.5951 24.5067 25.6223 23.18 26.334 21.672C27.0636 20.1262 27.4427 18.43 27.4427 16.7116C27.4427 14.9931 27.0636 13.2969 26.334 11.7511C25.6223 10.2431 24.5951 8.91643 23.3264 7.86613C24.9042 6.61815 26.7859 5.84164 28.765 5.62274C30.7845 5.39938 32.8243 5.76555 34.6515 6.67957C36.4786 7.59361 38.0196 9.01877 39.0979 10.7925C40.1762 12.5663 40.7482 14.6169 40.7483 16.71V16.7131Z" fill="#3A3A3A" stroke="#EAEAEA" stroke-width="0.2"/>
<path d="M39.804 23.6829V23.3204H39.9467V23.2454H39.5854V23.3204H39.7403V23.6829H39.804ZM40.5052 23.6829V23.2454H40.396L40.2685 23.5579L40.141 23.2454H40.0438V23.6829H40.1228V23.3548L40.2411 23.6392H40.3231L40.4415 23.3548V23.686L40.5052 23.6829Z" fill="#3A3A3A"/>
</svg>
