<svg width="50" height="17" viewBox="0 0 50 17" fill="none" xmlns="http://www.w3.org/2000/svg">
<path d="M18.0349 16.0418L20.5359 0.835449H24.585L22.0841 16.0418H18.0349Z" fill="#3A3A3A"/>
<path d="M36.4985 1.22904C35.6961 0.920868 34.4389 0.59082 32.8689 0.59082C28.8671 0.59082 26.0483 2.65376 26.024 5.60927C26.0018 7.79378 28.0362 9.01228 29.5731 9.74026C31.1492 10.4841 31.6793 10.9615 31.6715 11.6262C31.6617 12.6455 30.4123 13.1115 29.248 13.1115C27.6275 13.1109 26.7662 12.8808 25.4362 12.3133L24.9144 12.071L24.3457 15.4752C25.2917 15.8998 27.0412 16.2681 28.8573 16.2867C33.1134 16.2857 35.8776 14.2483 35.9086 11.0913C35.9241 9.36165 34.8449 8.04529 32.5086 6.95971C31.0929 6.25715 30.2259 5.78793 30.2353 5.07486C30.2353 4.44303 30.9696 3.76717 32.5545 3.76717C33.8788 3.74587 34.8382 4.04141 35.586 4.34958L35.9483 4.52497L36.4985 1.22904Z" fill="#3A3A3A"/>
<path d="M43.4021 0.835449C42.432 0.835449 41.731 1.1405 41.3047 2.1305L35.3037 16.0423H39.5909L40.4243 13.7121H45.5465L46.0223 16.0423H49.8336L46.4993 0.835876H43.4023L43.4021 0.835449ZM41.5618 10.6694C41.8963 9.79373 43.1746 6.41927 43.1746 6.41927C43.1514 6.45918 43.5074 5.53933 43.7118 4.96857L43.9858 6.27896C43.9858 6.27896 44.7604 9.90891 44.9231 10.6698H41.5618V10.6694Z" fill="#3A3A3A"/>
<path d="M10.6505 11.2592L10.2938 9.17454C9.55482 6.74449 7.26126 4.11519 4.69116 2.79784L8.26867 16.0418H12.5568L18.9877 0.835449H14.7005L10.6505 11.2592Z" fill="#3A3A3A"/>
<path d="M0.289307 0.835449V1.081C5.37023 2.33927 8.89769 5.5203 10.2942 9.17468L8.82597 2.1332C8.58087 1.17089 7.83814 0.868964 6.95927 0.83559L0.289307 0.835449Z" fill="#3A3A3A"/>
</svg>
